<svg width="50" height="50" viewBox="0 0 50 50" fill="none" xmlns="http://www.w3.org/2000/svg">
<rect width="50" height="50" fill="#333333" fill-opacity="0.39"/>
<path d="M34.9423 24.0323L17.6195 24.0323L21.3301 20.6537C21.7442 20.2766 21.7458 19.6639 21.3337 19.2851C20.9216 18.9062 20.2519 18.9048 19.8378 19.2818L14.3112 24.3141L14.3102 24.315C13.8973 24.692 13.8959 25.3067 14.3101 25.685L14.3111 25.6859L19.8377 30.7182C20.2517 31.0951 20.9214 31.0938 21.3336 30.7149C21.7457 30.3361 21.7441 29.7234 21.33 29.3463L17.6195 25.9677L34.9423 25.9677C35.5265 25.9677 36 25.5345 36 25C36 24.4655 35.5265 24.0323 34.9423 24.0323Z" fill="white"/>
</svg>
