<svg width="67%" height="54%" viewBox="0 0 67 54" fill="none" xmlns="http://www.w3.org/2000/svg">
<g clip-path="url(#clip0)">
<path d="M63.319 35.2956C62.2663 45.4122 47.6845 52.1733 30.7432 50.4105C13.73 48.5591 0.852463 38.9409 1.89675 28.9046C1.95523 28.3425 2.094 27.7889 2.22442 27.3155C4.55846 18.1438 18.4863 12.2075 34.5444 13.8783C50.6025 15.5492 63.0099 24.2257 63.3974 33.7617C63.3556 34.1632 63.3774 34.7336 63.319 35.2956Z" fill="#78CCCA"/>
<path d="M63.3255 33.6731C62.6098 35.8711 60.6513 37.534 58.8751 39.784C57.099 42.0339 54.7306 43.7353 51.519 43.4012C49.9132 43.2341 48.08 43.6926 46.6064 44.5944C44.2631 46.0549 41.2423 46.2275 38.6512 45.3898C36.3729 44.6658 33.7066 44.5507 31.2143 45.103C27.1548 45.8979 23.8243 45.1456 20.7162 43.0367C17.9126 41.1218 14.8731 39.9128 12.0077 39.3711C7.78575 38.6072 5.56083 36.5902 4.30591 33.0509C3.55963 30.8631 2.35343 29.1955 2.14412 27.3071C4.47816 18.1354 18.406 12.1991 34.4641 13.87C50.5306 15.4605 62.938 24.1371 63.3255 33.6731Z" fill="#5EC4BA"/>
<path d="M63.8536 30.157C63.5612 32.9672 61.2648 34.7573 59.206 37.3836C57.4299 39.6336 55.0615 41.335 51.8499 41.0009C50.2441 40.8338 48.4109 41.2923 46.9373 42.194C44.5137 43.6462 41.5732 43.8272 38.982 42.9895C36.7038 42.2655 34.0375 42.1504 31.5452 42.7026C27.4857 43.4976 24.1552 42.7453 21.0471 40.6364C18.2434 38.7215 15.204 37.5124 12.3303 37.0511C8.028 36.2788 5.81143 34.1815 4.55651 30.6422C3.68307 28.1165 2.18912 26.0944 2.43139 23.766C3.33366 15.0946 17.7902 9.53794 34.7314 11.3007C51.753 13.0718 64.7559 21.4857 63.8536 30.157Z" fill="#EB5660"/>
<path d="M64.4217 24.6973C63.3691 34.8139 48.7956 41.4946 31.8543 39.7319C14.8328 37.9607 1.95522 28.3425 2.99951 18.3062C3.09976 17.3427 3.3606 16.396 3.70172 15.4575C6.94076 6.94816 20.3201 1.60403 35.5753 3.19135C50.9107 4.78702 62.9032 12.7711 64.321 21.765C64.47 22.6733 64.5303 23.6535 64.4217 24.6973Z" fill="#5EC4BA"/>
<path d="M64.2459 22.4877C61.0068 30.997 47.6275 36.3412 32.292 34.7455C17.0369 33.1582 5.04437 25.1741 3.62656 16.1801C6.86561 7.67076 20.2449 2.32664 35.5001 3.91396C50.8356 5.50963 62.8281 13.4937 64.2459 22.4877Z" fill="#78CCCA"/>
<path d="M37.2135 9.28645C37.9951 12.6953 32.2916 16.8091 24.5656 18.5212C16.8313 20.3135 9.91284 18.9444 9.12295 15.6158C8.34141 12.2069 14.0448 8.09312 21.7708 6.38107C29.5052 4.58872 36.4236 5.95787 37.2135 9.28645Z" fill="#9BD7D5"/>
<path d="M44.5343 18.4888C44.2132 18.4554 44.1547 19.0174 44.4758 19.0509C44.8857 19.0123 44.9358 18.5306 44.5343 18.4888Z" fill="#5EC4BA"/>
<path d="M48.8477 14.4739C47.804 14.3653 47.6369 15.9711 48.6807 16.0797C49.7244 16.1883 49.8915 14.5825 48.8477 14.4739Z" fill="#5EC4BA"/>
<path d="M35.5724 21.9389C34.5286 21.8303 34.3532 23.5164 35.397 23.625C36.521 23.742 36.6965 22.0559 35.5724 21.9389Z" fill="#5EC4BA"/>
<path d="M21.761 22.8555L21.6807 22.8471C21.3596 22.8137 21.3011 23.3758 21.6222 23.4092L21.7025 23.4175C22.0237 23.4509 22.0822 22.8889 21.761 22.8555Z" fill="#5EC4BA"/>
<path d="M34.5565 16.8825L34.4762 16.8742C34.2604 16.6082 33.8171 16.9679 34.033 17.2338C34.1852 17.3308 34.2571 17.4195 34.498 17.4445C34.8994 17.4863 34.9579 16.9243 34.5565 16.8825Z" fill="#5EC4BA"/>
<path d="M39.6186 6.45265C39.2974 6.41923 39.2389 6.98126 39.5601 7.01468C39.8812 7.0481 39.9397 6.48606 39.6186 6.45265Z" fill="#7AC143"/>
<path d="M25.7491 25.8676L25.5082 25.8425C24.4644 25.7339 24.289 27.42 25.3328 27.5286L25.5736 27.5537C26.7061 27.5903 26.8731 25.9845 25.7491 25.8676Z" fill="#5EC4BA"/>
<path d="M8.68809 15.8952C8.3117 15.6126 7.81325 15.723 7.53061 16.0994C7.35332 16.2433 7.24797 16.4758 7.2229 16.7167C7.17278 17.1984 7.54081 17.5613 7.94226 17.6031C8.34372 17.6449 8.6983 17.3571 8.82036 16.964C9.17494 16.6763 8.99255 16.0892 8.68809 15.8952Z" fill="#5EC4BA"/>
<path d="M44.7747 28.6588C43.7309 28.5502 43.5638 30.156 44.6076 30.2646C45.6513 30.3732 45.8987 28.7758 44.7747 28.6588Z" fill="#5EC4BA"/>
</g>
<defs>
<clipPath id="clip0">
<rect width="61.7538" height="47.3849" fill="white" transform="translate(4.9043) rotate(5.94032)"/>
</clipPath>
</defs>
</svg>
