<svg width="76%" height="69%" viewBox="0 0 76 69" fill="none" xmlns="http://www.w3.org/2000/svg">
<g clip-path="url(#clip0)">
<path d="M68.2439 26.4565C72.4523 35.7162 63.2923 48.9236 47.7859 55.971C32.1726 62.9783 16.199 61.1937 12.024 52.0075C11.7902 51.493 11.6299 50.9452 11.503 50.4709C8.87791 41.3782 17.8909 29.213 32.5889 22.533C47.2869 15.853 62.3787 17.063 67.5358 25.0936C67.7028 25.461 68.0101 25.942 68.2439 26.4565Z" fill="#78CCCA"/>
<path d="M67.4289 25.0534C67.9232 27.3116 67.0746 29.7366 66.6803 32.5759C66.286 35.4152 65.1034 38.0808 62.1637 39.4168C60.6939 40.0848 59.3444 41.4075 58.5292 42.9307C57.2464 45.3758 54.7277 47.0525 52.0687 47.6403C49.7371 48.168 47.3787 49.4171 45.508 51.154C42.408 53.893 39.1544 54.9283 35.4065 54.681C32.0194 54.447 28.7859 54.9412 26.04 55.9231C22.0114 57.3993 19.0719 56.7845 16.1993 54.366C14.4491 52.856 12.5651 52.0275 11.4295 50.5042C8.80441 41.4116 17.8174 29.2464 32.5154 22.5664C47.18 15.8129 62.2718 17.0229 67.4289 25.0534Z" fill="#5EC4BA"/>
<path d="M66.1063 21.7531C67.2753 24.3253 66.1996 27.0309 65.7518 30.3379C65.3575 33.1772 64.1748 35.8428 61.2352 37.1788C59.7654 37.8468 58.4159 39.1695 57.6007 40.6926C56.2444 43.1711 53.7992 44.8145 51.1402 45.4022C48.8086 45.9299 46.4502 47.1791 44.5795 48.916C41.4795 51.6549 38.2259 52.6903 34.478 52.4429C31.0909 52.2089 27.8573 52.7031 25.1449 53.7585C21.0428 55.2682 18.0699 54.5799 15.1973 52.1613C13.1665 50.4242 10.855 49.4353 9.88638 47.3041C6.27918 39.3672 15.9402 27.2621 31.4466 20.2147C47.0265 13.134 62.4991 13.8162 66.1063 21.7531Z" fill="#EB5660"/>
<path d="M63.8351 16.7558C68.0435 26.0155 58.8501 39.1494 43.3437 46.1968C27.7638 53.2776 11.7902 51.493 7.6152 42.3068C7.2144 41.4249 6.96058 40.4762 6.78025 39.4941C5.27086 30.5151 14.1101 19.1382 28.0732 12.7922C42.1098 6.41283 56.4935 7.23532 62.2653 14.2771C62.8531 14.9853 63.4009 15.8004 63.8351 16.7558Z" fill="#5EC4BA"/>
<path d="M62.5659 14.9385C64.0753 23.9176 55.236 35.2944 41.1994 41.6738C27.2363 48.0198 12.8527 47.1973 7.08086 40.1555C5.57147 31.1765 14.4107 19.7996 28.3738 13.4536C42.4104 7.07423 56.7941 7.89671 62.5659 14.9385Z" fill="#78CCCA"/>
<path d="M32.5691 17.2218C34.9674 19.7673 32.1277 26.2007 26.3286 31.5851C20.5628 37.043 13.9019 39.3609 11.5371 36.8889C9.13883 34.3434 11.9785 27.9099 17.7777 22.5255C23.5434 17.0677 30.2043 14.7498 32.5691 17.2218Z" fill="#9BD7D5"/>
<path d="M43.5388 21.458C43.2448 21.5916 43.4786 22.106 43.7726 21.9724C44.1066 21.7319 43.9062 21.291 43.5388 21.458Z" fill="#5EC4BA"/>
<path d="M45.2293 15.8128C44.2739 16.247 44.9419 17.7168 45.8973 17.2826C46.8527 16.8484 46.1847 15.3786 45.2293 15.8128Z" fill="#5EC4BA"/>
<path d="M37.5524 28.9668C36.597 29.401 37.2984 30.9443 38.2538 30.5101C39.2826 30.0425 38.5812 28.4992 37.5524 28.9668Z" fill="#5EC4BA"/>
<path d="M26.1012 36.7427L26.0277 36.7761C25.7337 36.9097 25.9675 37.4241 26.2615 37.2905L26.335 37.2571C26.6289 37.1235 26.3951 36.6091 26.1012 36.7427Z" fill="#5EC4BA"/>
<path d="M34.1186 25.1186L34.0452 25.152C33.7245 25.0317 33.524 25.5661 33.8447 25.6864C34.0251 25.6931 34.132 25.7332 34.3524 25.633C34.7199 25.466 34.4861 24.9516 34.1186 25.1186Z" fill="#5EC4BA"/>
<path d="M33.2107 13.5608C32.9167 13.6944 33.1505 14.2088 33.4445 14.0752C33.7385 13.9416 33.5047 13.4272 33.2107 13.5608Z" fill="#7AC143"/>
<path d="M31.0649 37.3241L30.8445 37.4243C29.8891 37.8585 30.5905 39.4018 31.5459 38.9676L31.7663 38.8674C32.7618 38.3263 32.0938 36.8565 31.0649 37.3241Z" fill="#5EC4BA"/>
<path d="M11.3032 37.3498C10.8356 37.2963 10.4615 37.6437 10.408 38.1114C10.3278 38.3252 10.3545 38.579 10.4547 38.7995C10.6551 39.2404 11.1562 39.3674 11.5236 39.2004C11.8911 39.0334 12.0514 38.6058 11.9579 38.205C12.1183 37.7774 11.664 37.3632 11.3032 37.3498Z" fill="#5EC4BA"/>
<path d="M48.8896 30.1099C47.9342 30.5441 48.6022 32.0139 49.5576 31.5797C50.5129 31.1455 49.9184 29.6423 48.8896 30.1099Z" fill="#5EC4BA"/>
</g>
<defs>
<clipPath id="clip0">
<rect width="61.7538" height="47.3849" fill="white" transform="translate(0 25.551) rotate(-24.441)"/>
</clipPath>
</defs>
</svg>
