<svg width="125" height="135" viewBox="0 0 125 135" fill="none" xmlns="http://www.w3.org/2000/svg">
<g clip-path="url(#clip0)">
<path d="M54.9144 74.1842C54.9781 78.5162 47.0034 82.0223 37.2006 82.0949C27.3978 82.1676 19.3405 78.8119 19.2458 74.5751C19.1821 70.2431 27.1569 66.737 36.9597 66.6644C46.7934 66.4966 54.8198 69.9473 54.9144 74.1842Z" fill="#FFC928"/>
<path d="M61.3996 87.2284C61.0192 87.1047 60.8027 87.7704 61.1831 87.8941C61.6895 87.9536 61.8751 87.383 61.3996 87.2284Z" fill="#EE8034"/>
<path d="M67.6645 83.4819C66.4282 83.08 65.7789 85.0771 67.0152 85.479C68.2515 85.881 68.9008 83.8839 67.6645 83.4819Z" fill="#EE8034"/>
<path d="M49.6489 89.0864C48.4126 88.6844 47.7942 90.5864 49.0305 90.9884C50.2668 91.3903 50.9803 89.5192 49.6489 89.0864Z" fill="#EE8034"/>
<path d="M32.6802 86.619L32.5851 86.5881C32.2047 86.4644 31.9883 87.1301 32.3687 87.2538L32.4638 87.2847C32.8442 87.4084 33.0606 86.7427 32.6802 86.619Z" fill="#EE8034"/>
<path d="M49.7286 82.6978C49.7286 82.6978 49.6335 82.6669 49.7286 82.6978C49.441 82.2888 48.8109 82.6097 49.0034 82.9878C49.1627 83.1447 49.2269 83.2707 49.5122 83.3635C49.9877 83.5181 50.2041 82.8524 49.7286 82.6978Z" fill="#EE8034"/>
<path d="M58.5617 71.3743C58.1813 71.2506 57.9648 71.9163 58.3452 72.04C58.7256 72.1637 58.9421 71.498 58.5617 71.3743Z" fill="#EE8034"/>
<path d="M36.7311 91.3009L36.4458 91.2081C35.2095 90.8062 34.5911 92.7082 35.8274 93.1101L36.1127 93.2029C37.4441 93.6358 38.0625 91.7338 36.7311 91.3009Z" fill="#EE8034"/>
<path d="M18.6473 74.8008C18.2646 74.3609 17.6322 74.3656 17.1923 74.7484C16.9402 74.8767 16.7524 75.1311 16.6596 75.4164C16.4741 75.987 16.8259 76.522 17.3014 76.6766C17.7769 76.8312 18.281 76.5745 18.5307 76.1299C19.0348 75.8732 18.9659 75.1147 18.6473 74.8008Z" fill="#EE8034"/>
<path d="M59.0561 99.6105C57.8198 99.2086 57.1705 101.206 58.4068 101.608C59.7692 101.945 60.3875 100.043 59.0561 99.6105Z" fill="#EE8034"/>
</g>
<path d="M79.8014 112.454C75.9056 124.437 56.4897 128.85 36.4236 122.326C16.2933 115.676 3.18493 100.689 7.04979 88.8012C7.26622 88.1355 7.57775 87.5007 7.85836 86.9611C13.0616 76.4551 31.4717 72.8716 50.4917 79.0554C69.5117 85.2392 82.2945 98.964 80.2937 110.616C80.1391 111.092 80.0178 111.788 79.8014 112.454Z" fill="#F7AD1A"/>
<path d="M80.2299 110.49C78.7936 112.968 75.9902 114.475 73.2558 116.74C70.5213 119.006 67.2115 120.453 63.4075 119.217C61.5055 118.598 59.166 118.679 57.1473 119.389C53.9303 120.552 50.2261 119.978 47.3042 118.292C44.7319 116.825 41.5317 115.995 38.3695 116.018C33.2458 115.93 29.4062 114.156 26.1873 110.796C23.287 107.75 19.9182 105.498 16.5874 104.1C11.6707 102.081 9.49795 99.0608 8.89454 94.4482C8.55723 91.6046 7.52798 89.272 7.76361 86.9301C12.9669 76.4242 31.3769 72.8407 50.3969 79.0245C69.4479 85.1132 82.2307 98.838 80.2299 110.49Z" fill="#EE8034"/>
<path d="M81.78 106.368C80.6979 109.696 77.4523 111.27 74.2779 113.918C71.5435 116.184 68.2337 117.631 64.4297 116.394C62.5277 115.776 60.1881 115.857 58.1695 116.567C54.8574 117.699 51.2483 117.156 48.3264 115.47C45.754 114.003 42.5539 113.173 39.3917 113.196C34.268 113.108 30.4284 111.334 27.2095 107.974C24.3092 104.928 20.9404 102.676 17.5786 101.373C12.5669 99.3226 10.425 96.2077 9.82161 91.5952C9.41777 88.3093 8.1318 85.4727 9.02845 82.7148C12.3677 72.444 31.3197 69.4574 51.3859 75.9813C71.452 82.5052 85.1192 96.0969 81.78 106.368Z" fill="#F7ADBB"/>
<path d="M84.0754 100.279C80.1796 112.262 60.7947 116.58 40.7286 110.056C20.6625 103.532 7.55407 88.5445 11.4189 76.657C11.79 75.5158 12.3512 74.4364 13.0075 73.388C19.0095 63.9829 36.6016 60.9748 54.6706 66.8493C72.8347 72.7548 85.2943 85.5333 84.6821 96.7959C84.6272 97.9347 84.4464 99.1378 84.0754 100.279Z" fill="#EE8034"/>
<path d="M84.5204 96.3227C78.4233 105.697 60.8312 108.705 42.6671 102.8C24.5981 96.9249 12.1385 84.1465 12.7198 72.979C18.8479 63.5097 36.44 60.5016 54.509 66.3762C72.6731 72.2817 85.1327 85.0602 84.5204 96.3227Z" fill="#F7AD1A"/>
<path d="M108.654 23.0864C108.397 22.7029 107.974 22.4833 107.558 22.2901C106.088 21.5895 104.564 20.9479 102.943 20.7077C101.331 20.4723 99.6042 20.6507 98.2239 21.5161C99.7325 18.7048 101.536 16.065 103.593 13.6301C103.437 13.4896 103.272 13.3445 103.116 13.204C101.213 14.5604 99.8006 16.4826 98.633 18.5049C97.4653 20.5272 96.5076 22.6526 95.3314 24.6703C96.3436 20.592 95.7916 16.1493 93.8118 12.4354C93.3405 12.5885 92.8737 12.7331 92.4024 12.8862C93.9584 14.2429 94.4098 16.3051 94.6786 18.3564C94.9389 20.403 95.0686 22.445 94.5854 24.4523L94.1096 26.8735C94.5783 25.0355 95.9623 24.0613 97.6991 23.2128C99.6883 22.247 101.059 22.0517 103.122 22.0898C104.558 22.1188 107.582 23.2444 108.524 24.3226C108.912 24.0577 108.916 23.4613 108.654 23.0864Z" fill="#E08CB8"/>
<path d="M94.1143 26.8649C94.0794 26.9899 94.0532 27.1196 94.0355 27.2539L94.1143 26.8649Z" fill="#E08CB8"/>
<path d="M96.2668 22.4218L43.6962 64.5904C43.6962 64.5904 45.1781 70.359 50.5254 75.3195C54.7669 79.257 62.8832 83.7538 62.8832 83.7538C62.8832 83.7538 71.0646 88.131 76.6736 89.557C83.742 91.3567 89.3914 89.4711 89.3914 89.4711L96.2668 22.4218Z" fill="#46A5AA"/>
<path d="M92.3717 37.8223C93.004 38.4323 93.7147 39.0408 94.4796 39.4684L94.9122 35.2738C93.5406 34.2502 92.1148 33.2855 90.8705 32.1096C89.854 31.1464 88.9733 30.0356 88.2573 28.8261L86.0351 30.6065C87.9367 33.1813 90.0658 35.6032 92.3717 37.8223Z" fill="#E08CB8"/>
<path d="M91.1566 67.2743C91.2988 67.3185 91.4543 67.3589 91.6143 67.3907L92.0538 63.1223C88.7147 60.2964 84.9218 57.9986 81.665 55.0624C77.5722 51.3609 74.4073 46.6473 72.5089 41.4605L67.9304 45.1254C71.5226 49.1966 74.5009 53.7643 78.0574 57.8604C81.6263 61.9744 85.9452 65.6883 91.1566 67.2743Z" fill="#E08CB8"/>
<path d="M90.7494 75.7797C90.5705 75.6602 90.3871 75.5492 90.2083 75.4297C84.2361 71.6574 78.2306 67.8447 72.993 63.1101C68.7143 59.241 64.9336 54.7015 62.4425 49.5242L57.129 53.7857C64.0727 66.1165 75.2956 76.0039 88.4236 81.3135C88.9606 81.5284 89.5419 81.7231 90.1348 81.8355L90.7494 75.7797Z" fill="#E08CB8"/>
<path d="M82.7685 34.9968C82.5428 34.5971 82.331 34.1716 82.1239 33.7377L78.5668 36.5854C81.5513 41.2229 84.9054 45.6297 88.5792 49.7343C89.8876 51.1998 91.279 52.6552 93.0396 53.5141L93.5658 48.3738C89.2499 44.573 85.5741 40.0242 82.7685 34.9968Z" fill="#E08CB8"/>
<path d="M57.3644 76.3192C59.294 78.9647 61.2314 81.6366 63.4257 84.0607C65.3986 85.0795 71.9194 88.3532 76.6215 89.5512C77.7786 89.8489 78.8959 90.0364 79.9502 90.1564C79.7353 89.6961 79.4101 89.2753 79.0795 88.8849C76.2766 85.5424 72.6768 82.9511 69.6225 79.8261C63.8297 73.8921 60.1331 66.1645 54.3861 60.1668C53.6378 59.3829 52.8453 58.6191 52.1646 57.7722L46.9722 61.9335C47.5886 62.8782 48.2538 63.7942 48.9066 64.6923C51.7256 68.5752 54.5493 72.4495 57.3644 76.3192Z" fill="#E08CB8"/>
<path opacity="0.34" d="M58.3561 59.8585C57.1625 60.8699 55.9184 61.9534 55.3755 63.4188C54.8326 64.8842 55.2613 66.8453 56.7078 67.4668C57.7081 67.8896 58.9002 67.553 59.7633 66.9044C60.6264 66.2557 61.2507 65.3331 61.8611 64.4361C66.309 57.9977 71.6969 52.2152 77.795 47.3067C78.8389 46.4685 82.1768 42.7815 78.7386 42.9473C76.7359 43.042 73.7097 46.7878 72.2243 48.0501C67.6057 51.9922 62.9786 55.9296 58.3561 59.8585Z" fill="white"/>
<path opacity="0.34" d="M81.2866 40.3032C81.1618 40.5121 81.0362 40.7428 81.0582 40.9873C81.0898 41.4586 81.6332 41.7434 82.0954 41.7293C83.033 41.6971 83.7484 40.9126 84.3527 40.1896C85.1572 39.221 89.6146 34.9032 86.0082 35.3983C83.8644 35.6708 82.2325 38.6475 81.2866 40.3032Z" fill="white"/>
<path d="M106.588 30.7884C107.166 28.3229 106.272 25.566 104.348 23.909C102.423 22.2519 99.5692 21.7722 97.2109 22.7033C98.3665 21.0288 99.8922 19.6113 101.644 18.5935C102.586 18.0435 103.673 17.5943 104.756 17.7632C104.693 17.3299 104.616 16.9006 104.553 16.4674C100.487 16.5239 96.5933 19.277 95.1853 23.0844C95.3634 21.21 94.2822 19.3476 92.7335 18.2829C91.1809 17.2049 89.229 16.8399 87.3444 16.9213C86.991 16.9392 86.6197 16.9696 86.3379 17.1817C85.7923 17.5934 85.86 18.4056 85.9719 19.0756C87.8041 18.113 90.1932 18.3063 91.8579 19.5449C93.5225 20.7836 94.382 23.0125 93.9935 25.0492L94.6538 26.3612C95.6882 24.6651 97.822 23.8002 99.7862 24.0612C101.759 24.3268 103.504 25.6206 104.548 27.3074C104.895 27.8726 105.182 28.5053 105.19 29.163C105.193 29.8292 104.859 30.5226 104.253 30.8016C105.051 30.9038 105.826 30.9051 106.588 30.7884Z" fill="#46A5AA"/>
<defs>
<clipPath id="clip0">
<rect width="76.8" height="58.7" fill="white" transform="translate(18.1807 54.5652) rotate(18.0103)"/>
</clipPath>
</defs>
</svg>
