<svg width="69%" height="61%" viewBox="0 0 69 61" fill="none" xmlns="http://www.w3.org/2000/svg">
<g clip-path="url(#clip0)">
<path d="M63.6496 26.5246C66.5911 35.7251 56.6234 47.1212 41.3858 51.9929C26.0527 56.8146 11.3226 53.3147 8.40438 44.1873C8.24096 43.6761 8.14976 43.1419 8.0819 42.6807C6.60149 33.8179 16.3205 23.3866 30.7636 18.7689C45.2068 14.1512 59.1747 17.0095 63.1338 25.1603C63.2505 25.5254 63.4861 26.0134 63.6496 26.5246Z" fill="#F281A3"/>
<path d="M63.0382 25.1104C63.2586 27.2935 62.2068 29.4809 61.535 32.1102C60.8633 34.7394 59.4738 37.1153 56.5851 38.0388C55.1408 38.5006 53.7388 39.5927 52.8146 40.9345C51.3551 43.0913 48.8232 44.3837 46.2766 44.6345C44.0423 44.8659 41.7058 45.7739 39.7728 47.1967C36.5844 49.4234 33.4346 50.028 29.9602 49.3682C26.8213 48.762 23.7481 48.8593 21.0782 49.4714C17.1574 50.403 14.4773 49.4892 12.0525 46.8842C10.5789 45.2627 8.90771 44.2678 8.00968 42.7038C6.52927 33.841 16.2482 23.4097 30.6914 18.792C45.1113 14.1013 59.0791 16.9596 63.0382 25.1104Z" fill="#EE5D7C"/>
<path d="M62.1554 21.8513C62.9725 24.407 61.6785 26.8328 60.9069 29.8964C60.2351 32.5257 58.8456 34.9016 55.957 35.8251C54.5127 36.2869 53.1107 37.379 52.1865 38.7207C50.6547 40.9006 48.195 42.1699 45.6485 42.4207C43.4141 42.6522 41.0777 43.5601 39.1447 44.983C35.9563 47.2096 32.8065 47.8142 29.332 47.1544C26.1931 46.5483 23.1199 46.6455 20.4734 47.3307C16.4804 48.2854 13.777 47.2986 11.3521 44.6935C9.64075 42.8262 7.58727 41.6316 6.91025 39.514C4.38894 31.6279 14.7068 21.327 29.9444 16.4553C45.1819 11.5837 59.6341 13.9652 62.1554 21.8513Z" fill="#AAD7D4"/>
<path d="M60.568 16.886C63.5095 26.0865 53.5185 37.4096 38.2809 42.2813C22.9711 47.176 8.24096 43.6761 5.32277 34.5487C5.04263 33.6724 4.90691 32.75 4.84342 31.8045C4.39302 23.1758 13.8655 13.4672 27.5865 9.08035C41.3075 4.69353 54.7275 7.08311 59.3664 14.3727C59.8399 15.1067 60.2645 15.9367 60.568 16.886Z" fill="#EE5D7C"/>
<path d="M59.3664 14.3727C59.7935 22.9284 50.3211 32.637 36.5278 37.0469C22.7346 41.4568 9.459 39.0211 4.84342 31.8045C4.39302 23.1758 13.8655 13.4672 27.5865 9.08035C41.3075 4.69353 54.7275 7.08311 59.3664 14.3727Z" fill="#F281A3"/>
<path d="M31.3128 13.7643C33.2809 16.4349 29.9409 22.1708 23.9486 26.5817C17.9562 30.9925 11.51 32.4901 9.56516 29.8925C7.59697 27.2219 10.937 21.486 16.9293 17.0752C22.8984 12.5913 29.3679 11.1668 31.3128 13.7643Z" fill="#F2AEBD"/>
<path d="M41.1067 19.0034C40.8179 19.0957 40.9813 19.6068 41.2701 19.5145C41.6079 19.326 41.4678 18.8879 41.1067 19.0034Z" fill="#EE3686"/>
<path d="M43.2891 13.879C42.3503 14.1792 42.8172 15.6396 43.756 15.3394C44.6948 15.0393 44.2279 13.5789 43.2891 13.879Z" fill="#EE3686"/>
<path d="M34.7125 25.3938C33.7737 25.6939 34.2406 27.1543 35.1794 26.8542C36.2137 26.604 35.7235 25.0705 34.7125 25.3938Z" fill="#EE3686"/>
<path d="M23.185 31.4133L23.1128 31.4364C22.8239 31.5288 22.9873 32.0399 23.2762 31.9476L23.3484 31.9245C23.6373 31.8321 23.4738 31.321 23.185 31.4133Z" fill="#EE3686"/>
<path d="M31.9163 21.3783C31.9163 21.3783 31.8441 21.4014 31.9163 21.3783C31.5574 21.2516 31.313 21.7321 31.5997 21.8819C31.7675 21.9088 31.863 21.9587 32.0797 21.8894C32.4408 21.774 32.2773 21.2628 31.9163 21.3783Z" fill="#EE3686"/>
<path d="M32.3032 10.3893C32.0144 10.4816 32.1778 10.9928 32.4666 10.9004C32.7555 10.8081 32.5921 10.2969 32.3032 10.3893Z" fill="#EE3686"/>
<path d="M27.7595 32.5263L27.5428 32.5956C26.604 32.8957 27.0943 34.4291 28.0331 34.129L28.2498 34.0597C29.2374 33.6635 28.7705 32.2031 27.7595 32.5263Z" fill="#EE3686"/>
<path d="M9.29747 30.3C8.86636 30.1964 8.47975 30.481 8.37983 30.9153C8.28209 31.1076 8.27991 31.3497 8.34995 31.5688C8.49002 32.0069 8.94448 32.1835 9.30556 32.0681C9.66664 31.9526 9.86212 31.5682 9.81761 31.18C10.0131 30.7956 9.63303 30.3537 9.29747 30.3Z" fill="#EE3686"/>
<path d="M45.1804 27.7614C44.2416 28.0616 44.7085 29.522 45.6473 29.2218C46.6583 28.8986 46.1914 27.4382 45.1804 27.7614Z" fill="#EE3686"/>
</g>
<defs>
<clipPath id="clip0">
<rect width="58" height="45" fill="white" transform="translate(0 17.9001) rotate(-17.7298)"/>
</clipPath>
</defs>
</svg>
