<svg width="69%" height="61%" viewBox="0 0 69 61" fill="none" xmlns="http://www.w3.org/2000/svg">
<g clip-path="url(#clip0)">
<path d="M60.5455 43.2707C57.9262 52.5681 43.3269 56.579 27.9289 52.2411C12.4787 47.8088 2.12008 36.7668 4.71855 27.5432C4.86407 27.0267 5.08256 26.5307 5.28026 26.1085C8.93224 17.8985 22.792 14.5554 37.3873 18.6672C51.9826 22.779 62.059 32.8654 60.8675 41.8482C60.7635 42.2171 60.691 42.7542 60.5455 43.2707Z" fill="#F281A3"/>
<path d="M60.8152 41.7539C59.7953 43.6966 57.7117 44.9415 55.7015 46.7645C53.6913 48.5875 51.2221 49.8034 48.303 48.981C46.8435 48.5698 45.0717 48.7079 43.5609 49.3176C41.154 50.3121 38.3291 49.9941 36.0664 48.7992C34.0748 47.7602 31.625 47.2294 29.2279 47.3505C25.3402 47.4499 22.3791 46.2175 19.8444 43.7512C17.5601 41.5148 14.9427 39.9013 12.3779 38.9398C8.59328 37.555 6.86132 35.3149 6.27488 31.8046C5.93965 29.6394 5.09401 27.8879 5.20725 26.088C8.85923 17.878 22.719 14.5349 37.3143 18.6467C51.9304 22.6847 62.0068 32.7711 60.8152 41.7539Z" fill="#EE5D7C"/>
<path d="M61.8759 38.5483C61.1483 41.1309 58.7312 42.441 56.3982 44.5714C54.388 46.3944 51.9187 47.6102 48.9997 46.7879C47.5401 46.3767 45.7684 46.5147 44.2575 47.1245C41.7776 48.0984 39.0258 47.801 36.7631 46.606C34.7715 45.5671 32.3217 45.0362 29.9245 45.1573C26.0369 45.2568 23.0758 44.0244 20.5411 41.5581C18.2567 39.3216 15.6393 37.7082 13.0537 36.8205C9.19616 35.4151 7.48499 33.1012 6.89855 29.5909C6.50052 27.0894 5.44613 24.9606 6.04898 22.8207C8.29406 14.8515 22.5815 11.9475 37.9796 16.2854C53.3776 20.6233 64.121 30.5791 61.8759 38.5483Z" fill="#AAD7D4"/>
<path d="M63.2894 33.5306C60.6702 42.828 46.0917 46.7651 30.6937 42.4272C15.2227 38.0687 4.86406 27.0267 7.46254 17.8031C7.71199 16.9176 8.10739 16.0733 8.57578 15.2495C12.958 7.80272 26.2136 4.92656 40.0791 8.83275C53.9446 12.7389 63.8225 22.1323 63.6729 30.7715C63.6632 31.6448 63.5597 32.5714 63.2894 33.5306Z" fill="#EE5D7C"/>
<path d="M63.6729 30.7715C59.3115 38.1444 46.0559 41.0206 32.1174 37.0938C18.1789 33.1671 8.44701 23.8149 8.57578 15.2495C12.958 7.80272 26.2136 4.92656 40.0791 8.83275C53.9446 12.7389 63.8225 22.1323 63.6729 30.7715Z" fill="#F281A3"/>
<path d="M40.6049 14.795C40.7743 18.1082 34.8251 21.0516 27.3939 21.4271C19.9627 21.8025 13.7593 19.4974 13.5691 16.258C13.3997 12.9448 19.3489 10.0014 26.7801 9.62595C34.2321 9.17669 40.4148 11.5556 40.6049 14.795Z" fill="#F2AEBD"/>
<path d="M45.8866 24.566C45.5947 24.4838 45.4492 25.0003 45.7411 25.0826C46.1268 25.1116 46.2515 24.6688 45.8866 24.566Z" fill="#EE3686"/>
<path d="M50.5328 21.4945C49.5841 21.2272 49.1684 22.703 50.1171 22.9703C51.0658 23.2375 51.4815 21.7617 50.5328 21.4945Z" fill="#EE3686"/>
<path d="M37.0286 26.3713C36.0799 26.1041 35.6641 27.5798 36.6128 27.8471C37.6137 28.2087 38.0502 26.6592 37.0286 26.3713Z" fill="#EE3686"/>
<path d="M24.0927 25.0368L24.0197 25.0162C23.7278 24.934 23.5823 25.4505 23.8742 25.5327L23.9472 25.5533C24.2391 25.6355 24.3846 25.119 24.0927 25.0368Z" fill="#EE3686"/>
<path d="M36.9101 21.4796C36.9101 21.4796 36.8371 21.4591 36.9101 21.4796C36.6805 21.176 36.2117 21.4422 36.3683 21.7252C36.4934 21.8401 36.5456 21.9345 36.7645 21.9962C37.1294 22.0989 37.2749 21.5824 36.9101 21.4796Z" fill="#EE3686"/>
<path d="M43.2922 12.5255C43.0003 12.4433 42.8548 12.9598 43.1467 13.0421C43.4386 13.1243 43.5842 12.6078 43.2922 12.5255Z" fill="#EE3686"/>
<path d="M27.2952 28.4876L27.0763 28.426C26.1276 28.1587 25.6911 29.7083 26.6398 29.9755L26.8587 30.0372C27.9011 30.2512 28.3169 28.7755 27.2952 28.4876Z" fill="#EE3686"/>
<path d="M13.1211 16.4504C12.8186 16.1262 12.3391 16.1504 12.0163 16.4577C11.8287 16.5641 11.6934 16.765 11.631 16.9863C11.5063 17.429 11.788 17.827 12.1529 17.9298C12.5178 18.0326 12.8929 17.8197 13.0698 17.4713C13.4448 17.2584 13.3714 16.6802 13.1211 16.4504Z" fill="#EE3686"/>
<path d="M44.4558 34.1186C43.5071 33.8513 43.0913 35.3271 44.04 35.5943C45.0617 35.8822 45.4774 34.4064 44.4558 34.1186Z" fill="#EE3686"/>
</g>
<defs>
<clipPath id="clip0">
<rect width="58" height="45" fill="white" transform="translate(12.2021 0.979248) rotate(15.7336)"/>
</clipPath>
</defs>
</svg>
