<svg width="64%" height="58%" viewBox="0 0 64 58" fill="none" xmlns="http://www.w3.org/2000/svg">
<g clip-path="url(#clip0)">
<path d="M56.9307 22.2841C60.3431 30.0551 52.5591 40.977 39.5457 46.6913C26.4436 52.3711 13.1348 50.7113 9.74957 43.002C9.55999 42.5702 9.43209 42.1114 9.33127 41.7143C7.23821 34.0996 14.8884 24.0458 27.2233 18.6293C39.5583 13.2129 52.1374 14.3838 56.3545 21.1394C56.4899 21.4477 56.7412 21.8524 56.9307 22.2841Z" fill="#F7AD1A"/>
<path d="M56.2657 21.1048C56.654 22.9942 55.92 25.0085 55.5607 27.3733C55.2013 29.7381 54.1861 31.9495 51.7191 33.0328C50.4856 33.5744 49.3454 34.6637 48.649 35.9258C47.5525 37.9522 45.433 39.3243 43.2082 39.7863C41.2571 40.2016 39.276 41.2187 37.6966 42.6479C35.0808 44.9 32.355 45.7291 29.2306 45.4826C26.4069 45.2512 23.7037 45.629 21.4022 46.4189C18.0251 47.6076 15.5791 47.0632 13.2081 45.0145C11.7639 43.7359 10.2008 43.0245 9.26958 41.7414C7.17651 34.1267 14.8267 24.0729 27.1616 18.6564C39.4695 13.1783 52.0486 14.3492 56.2657 21.1048Z" fill="#EE8034"/>
<path d="M55.1975 18.3369C56.1454 20.4955 55.2189 22.7415 54.8099 25.4959C54.4506 27.8608 53.4353 30.0722 50.9683 31.1555C49.7348 31.6971 48.5946 32.7863 47.8982 34.0485C46.7401 36.1019 44.6823 37.4469 42.4574 37.9089C40.5064 38.3243 38.5253 39.3413 36.9459 40.7705C34.33 43.0227 31.6043 43.8518 28.4798 43.6053C25.6562 43.3738 22.953 43.7516 20.6785 44.6032C17.2398 45.819 14.7666 45.2129 12.3957 43.1642C10.7198 41.6931 8.80171 40.8433 8.01632 39.0548C5.09145 32.3939 13.2817 22.3971 26.295 16.6828C39.3084 10.9685 52.2726 11.676 55.1975 18.3369Z" fill="#F7ADBB"/>
<path d="M53.6222 14.2469C57.0345 22.0179 49.2235 32.8781 36.2101 38.5924C23.1967 44.3068 9.88795 42.647 6.50267 34.9376C6.17769 34.1975 5.97605 33.4033 5.83609 32.5819C4.63811 25.1628 12.1349 15.7648 23.8531 10.6192C35.633 5.44647 47.6254 6.28649 52.3659 12.2237C52.8489 12.8208 53.2972 13.5068 53.6222 14.2469Z" fill="#EE8034"/>
<path d="M52.0726 12.0581C53.2089 19.5044 45.7121 28.9024 33.9322 34.0751C22.214 39.2207 10.2216 38.3807 5.50817 32.5052C4.34478 24.9973 11.8416 15.5993 23.5598 10.4536C35.3396 5.28095 47.3321 6.12097 52.0726 12.0581Z" fill="#F7AD1A"/>
<path d="M27.2636 14.1976C29.2375 16.3472 26.7994 21.6846 21.9032 26.1152C17.007 30.5458 11.4517 32.4702 9.50495 30.3823C7.53113 28.2328 9.96922 22.8954 14.8654 18.4648C19.7346 13.9726 25.3169 12.1098 27.2636 14.1976Z" fill="#FFC928"/>
<path d="M36.371 17.8494C36.1243 17.9577 36.3139 18.3894 36.5606 18.2811C36.8419 18.084 36.6794 17.714 36.371 17.8494Z" fill="#EE8034"/>
<path d="M37.8419 13.1573C37.0401 13.5094 37.6088 14.8046 38.4106 14.4525C39.2124 14.1004 38.6436 12.8053 37.8419 13.1573Z" fill="#EE8034"/>
<path d="M31.2959 24.0505C30.4941 24.4026 31.0358 25.6361 31.8375 25.284C32.6393 24.932 32.1593 23.6714 31.2959 24.0505Z" fill="#EE8034"/>
<path d="M21.6583 30.416L21.5966 30.4431C21.3499 30.5515 21.5395 30.9832 21.7862 30.8748L21.8478 30.8478C22.0945 30.7394 21.905 30.3077 21.6583 30.416Z" fill="#EE8034"/>
<path d="M28.4721 20.8029C28.4721 20.8029 28.4104 20.83 28.4721 20.8029C28.1442 20.7262 27.9712 21.17 28.2375 21.2738C28.3879 21.2813 28.4767 21.3159 28.6617 21.2347C28.9701 21.0993 28.7805 20.6675 28.4721 20.8029Z" fill="#EE8034"/>
<path d="M27.8381 11.1498C27.5914 11.2581 27.781 11.6899 28.0277 11.5815C28.2744 11.4732 28.0848 11.0415 27.8381 11.1498Z" fill="#EE8034"/>
<path d="M25.7937 30.9543L25.6087 31.0355C24.8069 31.3876 25.3485 32.6211 26.1503 32.269L26.3353 32.1878C27.1988 31.8086 26.6571 30.5751 25.7937 30.9543Z" fill="#EE8034"/>
<path d="M9.30491 30.7644C8.91529 30.7148 8.59941 31.0007 8.5498 31.3903C8.48061 31.5678 8.50018 31.7799 8.58143 31.9649C8.74392 32.335 9.16062 32.4463 9.469 32.3109C9.77737 32.1755 9.91574 31.8204 9.84201 31.485C9.98038 31.1299 9.60578 30.7795 9.30491 30.7644Z" fill="#EE8034"/>
<path d="M40.7431 25.1254C39.9413 25.4775 40.5101 26.7727 41.3118 26.4206C42.1482 25.9798 41.6066 24.7463 40.7431 25.1254Z" fill="#EE8034"/>
</g>
<defs>
<clipPath id="clip0">
<rect width="51.7316" height="39.5397" fill="white" transform="translate(0 20.7991) rotate(-23.7069)"/>
</clipPath>
</defs>
</svg>
