<svg width="70%" height="70%" viewBox="0 0 70 70" fill="none" xmlns="http://www.w3.org/2000/svg">
<path d="M56.9365 56.9365C44.8519 69.0212 25.2253 69.0212 13.0966 56.9365C0.967811 44.8078 0.967811 25.1812 13.0966 13.0966C25.1812 0.967811 44.8078 0.967811 56.9365 13.0966C69.0212 25.1812 69.0212 44.8078 56.9365 56.9365Z" fill="#74CED2"/>
<path d="M43.661 23.9902L43.3523 37.7067C43.3523 37.7067 41.6322 39.8237 34.9724 39.8237C28.3568 39.8237 27.3424 37.4421 27.3424 37.4421L27.0777 24.8282C26.769 24.8723 27.4306 24.8282 27.0777 24.8282C23.5053 24.8282 20.021 22.0055 20.021 18.433C20.021 14.8605 22.8878 11.9937 26.4603 11.9937C27.3424 11.9937 28.2686 12.2143 29.0624 12.523C30.1209 10.406 32.3703 8.99463 34.8842 8.99463C37.2659 8.99463 39.2506 10.3619 40.3973 12.3025C41.4558 11.5086 42.7349 11.1116 44.1903 11.1116C47.7628 11.1116 50.6296 13.9784 50.6296 17.5509C50.6737 21.1234 47.2335 23.9902 43.661 23.9902C43.4405 23.9902 43.9257 23.9902 43.661 23.9902Z" fill="white"/>
<path d="M17.6391 36.6924C17.6391 36.7806 17.595 36.7806 17.5509 36.7806C17.5068 36.7806 17.4627 36.7365 17.4627 36.6924V32.2379C17.4627 31.7086 17.4186 31.3117 17.3304 31.0029C17.1981 30.4737 16.9334 30.0326 16.4924 29.7239C16.0955 29.4152 15.6103 29.2388 15.0369 29.2388C14.3754 29.2388 13.802 29.5034 13.361 30.0326C13.7579 30.5178 13.9343 31.2235 13.9343 32.1056V36.6924C13.9343 36.7806 13.8902 36.7806 13.8461 36.7806C13.802 36.7806 13.7579 36.7365 13.7579 36.6924V32.3702C13.7579 31.3558 13.5815 30.606 13.2728 30.165C12.9199 30.606 12.7435 31.2676 12.7435 32.1938V36.6483C12.7435 36.7365 12.6994 36.7365 12.6553 36.7365C12.6112 36.7365 12.5671 36.6924 12.5671 36.6483V32.2379C12.5671 31.3117 12.7435 30.606 13.1404 30.0326C12.6553 29.5034 12.0819 29.2388 11.4204 29.2388C10.5824 29.2388 9.96492 29.5475 9.56798 30.165C9.21514 30.6942 9.03872 31.3558 9.03872 32.2379V36.6924C9.03872 36.7806 8.99462 36.7806 8.95051 36.7806C8.8623 36.7806 8.8623 36.7365 8.8623 36.6924V32.3702C8.8623 31.8409 8.90641 31.444 8.95051 31.1353C9.08283 30.5178 9.34746 30.0326 9.7885 29.6798C10.2295 29.2829 10.8029 29.1064 11.3763 29.1064C12.0819 29.1064 12.6994 29.3711 13.2287 29.9444C13.7138 29.4152 14.3313 29.1064 15.081 29.1064C15.6985 29.1064 16.2278 29.2829 16.6688 29.6798C17.1099 30.0767 17.4186 30.5619 17.5068 31.1353C17.5509 31.444 17.595 31.8409 17.595 32.3702V36.6924H17.6391Z" fill="black"/>
<path fill-rule="evenodd" clip-rule="evenodd" d="M12.7444 30.0767C12.3536 29.7197 11.9152 29.5504 11.4204 29.5504C10.6708 29.5504 10.1608 29.8191 9.8301 30.3335L9.8273 30.3378L9.82726 30.3378C9.51784 30.8019 9.35033 31.3981 9.35033 32.2379V36.6925C9.35033 36.7777 9.32906 36.9322 9.18403 37.0289C9.12212 37.0702 9.06121 37.0832 9.02413 37.0881C8.99204 37.0924 8.96182 37.0923 8.95235 37.0922C8.95163 37.0922 8.95103 37.0922 8.95056 37.0922C8.86531 37.0922 8.71083 37.071 8.61415 36.9259C8.57287 36.864 8.55985 36.8031 8.55491 36.766C8.55063 36.7339 8.55075 36.7037 8.55079 36.6943C8.55079 36.6935 8.5508 36.6929 8.5508 36.6925V32.3702C8.5508 31.8224 8.59657 31.4102 8.64214 31.0912L8.64366 31.0806L8.64592 31.07C8.78904 30.4021 9.08202 29.849 9.58688 29.4422C10.0944 28.9889 10.7438 28.7949 11.3763 28.7949C12.0709 28.7949 12.6921 29.026 13.2285 29.5068C13.7304 29.0575 14.3506 28.7949 15.0811 28.7949C15.7636 28.7949 16.3707 28.9923 16.8773 29.4483C17.3585 29.8814 17.7132 30.4277 17.8148 31.0879L17.8153 31.0912L17.8153 31.0912C17.8608 31.4102 17.9066 31.8224 17.9066 32.3702V36.3809H17.9507V36.6925C17.9507 36.7777 17.9295 36.9322 17.7844 37.0289C17.7225 37.0702 17.6616 37.0832 17.6245 37.0881C17.5924 37.0924 17.5622 37.0923 17.5527 37.0922C17.552 37.0922 17.5514 37.0922 17.551 37.0922C17.4488 37.0922 17.3645 37.0521 17.3043 37.004H17.2835V36.9863C17.2788 36.982 17.2743 36.9777 17.27 36.9734C17.2097 36.9131 17.1512 36.8158 17.1512 36.6925V32.2379C17.1512 31.7229 17.1079 31.3582 17.0309 31.0886L17.0294 31.0836L17.0282 31.0785C16.9104 30.6075 16.682 30.237 16.3138 29.9792L16.3074 29.9747L16.3012 29.9699C15.9596 29.7042 15.5419 29.5504 15.037 29.5504C14.5462 29.5504 14.1168 29.7166 13.7625 30.0576C14.1069 30.5997 14.2459 31.3048 14.2459 32.1056V36.6925C14.2459 36.7777 14.2247 36.9322 14.0796 37.0289C14.0177 37.0702 13.9568 37.0832 13.9197 37.0881C13.8876 37.0924 13.8574 37.0923 13.848 37.0922C13.8472 37.0922 13.8466 37.0922 13.8462 37.0922C13.7228 37.0922 13.6255 37.0337 13.5652 36.9734C13.505 36.9131 13.4464 36.8158 13.4464 36.6925V32.3702C13.4464 31.7261 13.3726 31.2171 13.2515 30.8401C13.1254 31.1793 13.0551 31.6217 13.0551 32.1938V36.6484C13.0551 36.7336 13.0338 36.8881 12.8888 36.9848C12.8269 37.0261 12.766 37.0391 12.7289 37.044C12.6968 37.0483 12.6666 37.0482 12.6571 37.0481C12.6564 37.0481 12.6558 37.0481 12.6553 37.0481C12.532 37.0481 12.4347 36.9896 12.3744 36.9293C12.3141 36.869 12.2556 36.7717 12.2556 36.6484V32.2379C12.2556 31.3806 12.4008 30.6738 12.7444 30.0767ZM8.72721 36.6921V36.6925L8.72721 36.6924C8.72721 36.6923 8.72721 36.6922 8.72721 36.6921Z" fill="black"/>
<path d="M26.945 33.0316C26.945 34.1342 26.5481 35.0604 25.7542 35.8543C25.7542 35.8102 25.7542 35.9425 25.7542 36.163C25.7542 36.3394 25.7542 36.4718 25.7542 36.6041C25.7542 36.7364 25.7101 36.8246 25.666 36.8246C25.6219 36.8246 25.5778 36.7805 25.5778 36.6482C25.5778 36.56 25.5778 36.4717 25.5778 36.2953C25.5778 36.0748 25.5778 35.9866 25.5778 36.0307C24.828 36.6923 23.9459 37.001 23.0197 37.001C21.9171 37.001 20.9909 36.6041 20.197 35.8543C19.4472 35.1045 19.0503 34.1342 19.0503 33.0757C19.0503 31.9731 19.4472 31.0469 20.197 30.2971C20.9468 29.5473 21.9171 29.1504 22.9756 29.1504C24.0782 29.1504 25.0044 29.5473 25.7542 30.2971C26.5481 31.0028 26.945 31.929 26.945 33.0316ZM26.7686 33.0316C26.7686 32.0172 26.4158 31.1351 25.666 30.3853C24.9162 29.6355 24.0341 29.2827 23.0197 29.2827C21.9612 29.2827 21.0791 29.6355 20.3293 30.3853C19.5795 31.1351 19.2267 32.0172 19.2267 33.0757C19.2267 34.1342 19.5795 35.0163 20.3293 35.722C21.0791 36.4718 21.9612 36.8246 22.9756 36.8246C23.9459 36.8246 24.7839 36.4717 25.5337 35.8102V33.1198C25.5337 33.0316 25.5778 32.9875 25.6219 32.9875C25.666 32.9875 25.7101 33.0316 25.7101 33.1198V35.6338C26.4158 34.8399 26.7686 34.0019 26.7686 33.0316Z" fill="black"/>
<path fill-rule="evenodd" clip-rule="evenodd" d="M26.0217 34.678C26.3149 34.1623 26.4571 33.623 26.4571 33.0316C26.4571 32.0992 26.1366 31.2965 25.4457 30.6057C24.7548 29.9148 23.9522 29.5943 23.0197 29.5943C22.0412 29.5943 21.2392 29.9161 20.5497 30.6057C19.8602 31.2952 19.5383 32.0972 19.5383 33.0757C19.5383 34.056 19.861 34.8534 20.5429 35.4951L20.5463 35.4984L20.5497 35.5017C21.2405 36.1926 22.0432 36.5131 22.9756 36.5131C23.8166 36.5131 24.5506 36.2254 25.2221 35.6669V33.1198C25.2221 32.9485 25.3286 32.676 25.6219 32.676C25.9153 32.676 26.0217 32.9485 26.0217 33.1198V34.678ZM25.2663 36.6575C24.5796 37.1015 23.8134 37.3126 23.0197 37.3126C21.8322 37.3126 20.8308 36.8814 19.9831 36.0808L19.9799 36.0778L19.9767 36.0746C19.1679 35.2658 18.7388 34.2159 18.7388 33.0757C18.7388 31.8895 19.1692 30.8844 19.9767 30.0768C20.7856 29.268 21.8354 28.8389 22.9756 28.8389C24.1587 28.8389 25.1616 29.267 25.9681 30.0704C26.8282 30.8383 27.2566 31.8491 27.2566 33.0316C27.2566 34.1771 26.8552 35.1514 26.0658 35.9811V36.6041C26.0658 36.7013 26.0501 36.8002 26.013 36.8867C25.9948 36.9292 25.9657 36.9821 25.9187 37.0291C25.8721 37.0757 25.7864 37.1362 25.666 37.1362C25.5227 37.1362 25.4047 37.0572 25.3382 36.9463C25.2825 36.8534 25.2672 36.7487 25.2663 36.6575ZM25.8905 36.669C25.8905 36.669 25.8904 36.6685 25.8902 36.6673L25.8905 36.669Z" fill="black"/>
<path d="M34.6634 35.6339C34.6634 35.7221 34.531 35.8544 34.2223 36.075C33.4725 36.6483 32.6345 36.9571 31.7084 36.9571C30.6498 36.9571 29.7236 36.5601 28.9739 35.8103C28.2241 35.0165 27.8271 34.0903 27.8271 33.0318C27.8271 31.9291 28.2241 31.0029 28.9739 30.2532C29.7236 29.5034 30.6498 29.1064 31.7525 29.1064C32.8992 29.1064 33.8254 29.5034 34.531 30.2532C34.5751 30.2973 34.6193 30.3855 34.6634 30.4296C34.6634 30.4737 34.6193 30.4737 34.5751 30.5178C34.531 30.5178 34.531 30.4737 34.4869 30.4737C33.7372 29.7239 32.811 29.327 31.7966 29.327C30.738 29.327 29.856 29.6798 29.1503 30.4296C28.4005 31.1794 28.0477 32.0615 28.0477 33.0759C28.0477 34.1344 28.4005 35.0165 29.1503 35.7662C29.856 36.516 30.738 36.8688 31.7966 36.8688C32.2817 36.8688 32.811 36.7365 33.2961 36.516C33.7372 36.3396 34.1341 36.0309 34.531 35.678C34.5751 35.678 34.5751 35.6339 34.6193 35.6339C34.6193 35.5457 34.6634 35.5898 34.6634 35.6339Z" fill="black"/>
<path fill-rule="evenodd" clip-rule="evenodd" d="M34.7554 30.037C33.9872 29.2222 32.9778 28.7949 31.7525 28.7949C30.5663 28.7949 29.5611 29.2254 28.7536 30.0329C27.9461 30.8404 27.5156 31.8456 27.5156 33.0318C27.5156 34.177 27.9481 35.178 28.7474 36.0243L28.7504 36.0275L28.7536 36.0307C29.5598 36.8368 30.5644 37.2686 31.7084 37.2686C32.7077 37.2686 33.6097 36.9345 34.4075 36.3256C34.5635 36.214 34.6894 36.1148 34.7789 36.0252C34.8037 36.0004 34.8283 35.9738 34.8512 35.9455H34.9308V35.8216C34.955 35.7708 34.9749 35.7073 34.9749 35.634C34.9749 35.5739 34.9607 35.5186 34.9394 35.4724C34.924 35.439 34.8799 35.3553 34.7807 35.3057C34.7211 35.2759 34.6279 35.2537 34.526 35.291C34.4639 35.3138 34.4201 35.3509 34.3903 35.3864L34.3241 35.4452C33.9324 35.7934 33.5688 36.0714 33.1804 36.2268L33.1738 36.2294L33.1672 36.2324C32.7139 36.4385 32.2286 36.5573 31.7966 36.5573C30.8163 36.5573 30.0189 36.2346 29.3772 35.5527L29.374 35.5493L29.3706 35.546C28.6811 34.8565 28.3593 34.0544 28.3593 33.0759C28.3593 32.1435 28.6797 31.3408 29.3706 30.6499L29.374 30.6466L29.3772 30.6431C30.0189 29.9613 30.8163 29.6386 31.7966 29.6386C32.7236 29.6386 33.5719 29.9992 34.2667 30.694L34.3579 30.7853H34.4012C34.4233 30.7974 34.4484 30.8081 34.4765 30.8159C34.51 30.8253 34.5432 30.8294 34.5752 30.8294H34.7042L34.7853 30.7483C34.7896 30.7456 34.797 30.7407 34.8086 30.733C34.8261 30.7213 34.8723 30.6899 34.9111 30.6345C34.9559 30.5704 34.9749 30.4984 34.9749 30.4296V30.3006L34.8868 30.2124C34.8859 30.2113 34.8844 30.2094 34.8823 30.2064C34.8757 30.1973 34.8682 30.1862 34.8565 30.1686L34.8552 30.1667C34.845 30.1514 34.831 30.1303 34.8161 30.1099C34.8018 30.0902 34.7812 30.0634 34.7554 30.037Z" fill="black"/>
<path d="M42.9992 33.0316C42.9992 34.1342 42.6023 35.0604 41.8084 35.8543C41.8084 35.8102 41.8084 35.9425 41.8084 36.163C41.8084 36.3394 41.8084 36.4718 41.8084 36.6041C41.8084 36.7364 41.7643 36.8246 41.7202 36.8246C41.6761 36.8246 41.632 36.7805 41.632 36.6482C41.632 36.56 41.632 36.4717 41.632 36.2953C41.632 36.0748 41.632 35.9866 41.632 36.0307C40.8822 36.6923 40.0001 37.001 39.0739 37.001C37.9713 37.001 37.0451 36.6041 36.2512 35.8543C35.5014 35.1045 35.1045 34.1342 35.1045 33.0757C35.1045 31.9731 35.5014 31.0469 36.2512 30.2971C37.001 29.5473 37.9713 29.1504 39.0298 29.1504C40.1324 29.1504 41.0586 29.5473 41.8084 30.2971C42.6464 31.0028 42.9992 31.929 42.9992 33.0316ZM42.8228 33.0316C42.8228 32.0172 42.47 31.1351 41.7202 30.3853C40.9704 29.6355 40.0883 29.2827 39.0739 29.2827C38.0154 29.2827 37.1333 29.6355 36.3835 30.3853C35.6337 31.1351 35.2809 32.0172 35.2809 33.0757C35.2809 34.1342 35.6337 35.0163 36.3835 35.722C37.1333 36.4718 38.0154 36.8246 39.0298 36.8246C40.0001 36.8246 40.8381 36.4717 41.5879 35.8102V33.1198C41.5879 33.0316 41.632 32.9875 41.6761 32.9875C41.7202 32.9875 41.7643 33.0316 41.7643 33.1198V35.6338C42.5141 34.8399 42.8228 34.0019 42.8228 33.0316Z" fill="black"/>
<path fill-rule="evenodd" clip-rule="evenodd" d="M42.0759 34.712C42.3809 34.1902 42.5113 33.6412 42.5113 33.0316C42.5113 32.0992 42.1908 31.2965 41.4999 30.6057C40.809 29.9148 40.0064 29.5943 39.0739 29.5943C38.0954 29.5943 37.2934 29.9161 36.6039 30.6057C35.9144 31.2952 35.5925 32.0972 35.5925 33.0757C35.5925 34.056 35.9152 34.8534 36.5971 35.4951L36.6005 35.4984L36.6039 35.5017C37.2947 36.1926 38.0974 36.5131 39.0298 36.5131C39.8708 36.5131 40.6047 36.2254 41.2763 35.6669V33.1198C41.2763 32.9485 41.3828 32.676 41.6761 32.676C41.9695 32.676 42.0759 32.9486 42.0759 33.1198V34.712ZM41.3205 36.6575C40.6338 37.1015 39.8676 37.3126 39.0739 37.3126C37.8864 37.3126 36.885 36.8814 36.0373 36.0808L36.0341 36.0778L36.0309 36.0746C35.2221 35.2658 34.793 34.2159 34.793 33.0757C34.793 31.8896 35.2234 30.8844 36.0309 30.0768C36.8398 29.268 37.8896 28.8389 39.0298 28.8389C40.2114 28.8389 41.2134 29.266 42.0193 30.0675C42.9325 30.8416 43.3108 31.8588 43.3108 33.0316C43.3108 34.1771 42.9094 35.1514 42.12 35.9811V36.6041C42.12 36.7013 42.1043 36.8002 42.0672 36.8867C42.049 36.9292 42.0199 36.9821 41.9729 37.0291C41.9263 37.0757 41.8406 37.1362 41.7202 37.1362C41.5769 37.1362 41.4589 37.0572 41.3924 36.9463C41.3367 36.8534 41.3214 36.7487 41.3205 36.6575ZM41.9447 36.669C41.9447 36.669 41.9446 36.6685 41.9444 36.6673L41.9447 36.669Z" fill="black"/>
<path d="M47.1008 29.3711C47.1008 29.4152 47.0567 29.4593 46.9685 29.4593C46.3511 29.5916 45.8659 29.8562 45.469 30.2091C45.0279 30.606 44.7192 31.0912 44.5428 31.6645C44.4105 32.0615 44.3664 32.6348 44.3664 33.4287V36.6924C44.3664 36.7807 44.3223 36.7807 44.2782 36.7807C44.234 36.7807 44.1899 36.7365 44.1899 36.6924V29.3711C44.1899 29.2829 44.234 29.2388 44.2782 29.2388C44.3223 29.2388 44.3664 29.2829 44.3664 29.3711C44.3664 30.8706 44.3664 31.7086 44.3223 31.9291C44.5428 30.8265 45.1602 29.9885 46.1746 29.5034C46.5275 29.327 46.748 29.2388 46.9685 29.2388C47.0567 29.2829 47.1008 29.2829 47.1008 29.3711Z" fill="black"/>
<path fill-rule="evenodd" clip-rule="evenodd" d="M44.6774 30.3302C44.678 30.0477 44.678 29.729 44.678 29.3738V29.3711C44.678 29.1998 44.5715 28.9272 44.2782 28.9272C43.9848 28.9272 43.8784 29.1998 43.8784 29.3711V36.6925C43.8784 36.8159 43.937 36.9132 43.9972 36.9734C44.0575 37.0337 44.1548 37.0922 44.2782 37.0922C44.2787 37.0922 44.2793 37.0922 44.28 37.0922C44.2894 37.0923 44.3197 37.0924 44.3518 37.0881C44.3888 37.0832 44.4497 37.0702 44.5117 37.0289C44.6567 36.9322 44.678 36.7777 44.678 36.6925V33.4287C44.678 32.6345 44.7237 32.1071 44.8384 31.7631L44.8385 31.7631L44.8406 31.7562C45.0005 31.2364 45.2784 30.8 45.6767 30.4413C46.0298 30.1277 46.4595 29.8909 47.0118 29.7688C47.1821 29.7525 47.4124 29.6408 47.4124 29.3711C47.4124 29.3257 47.4072 29.2637 47.3798 29.1985C47.3496 29.1269 47.3028 29.0752 47.2547 29.0392C47.215 29.0094 47.1744 28.9908 47.157 28.9828L47.1563 28.9825C47.1475 28.9785 47.1409 28.9755 47.1353 28.973C47.125 28.9683 47.1182 28.9653 47.1079 28.9601L47.0421 28.9272H46.9686C46.6661 28.9272 46.385 29.05 46.0378 29.2236C45.471 29.4951 45.0172 29.8695 44.6774 30.3302ZM44.0548 36.6921C44.0548 36.6922 44.0548 36.6923 44.0548 36.6924L44.0548 36.6925V36.6921Z" fill="black"/>
<path d="M55.613 33.0316C55.613 34.1342 55.216 35.0604 54.4663 35.8543C53.7165 36.6041 52.7903 37.001 51.6877 37.001C50.5851 37.001 49.6589 36.6041 48.865 35.8543C48.1152 35.1045 47.7183 34.1342 47.7183 33.0757C47.7183 31.9731 48.1152 31.0469 48.865 30.2971C49.6148 29.5473 50.5851 29.1504 51.6436 29.1504C52.7462 29.1504 53.6724 29.5473 54.4222 30.2971C55.216 31.0028 55.613 31.929 55.613 33.0316ZM55.3925 33.0316C55.3925 32.0172 55.0396 31.1351 54.2898 30.3853C53.5401 29.6355 52.658 29.2827 51.6436 29.2827C50.5851 29.2827 49.703 29.6355 48.9532 30.3853C48.2034 31.1351 47.8506 32.0172 47.8506 33.0757C47.8506 34.0901 48.2034 34.9722 48.9532 35.722C49.703 36.4718 50.5851 36.8246 51.5995 36.8246C52.658 36.8246 53.5401 36.4718 54.2457 35.722C55.0396 34.9722 55.3925 34.046 55.3925 33.0316Z" fill="black"/>
<path fill-rule="evenodd" clip-rule="evenodd" d="M48.6447 30.0768C49.4536 29.268 50.5034 28.8389 51.6436 28.8389C52.8266 28.8389 53.8296 29.267 54.636 30.0704C55.4962 30.8383 55.9246 31.8491 55.9246 33.0316C55.9246 34.2192 55.4934 35.2205 54.6928 36.0682L54.6897 36.0715L54.6866 36.0746C53.8791 36.8822 52.8739 37.3126 51.6877 37.3126C50.5002 37.3126 49.4988 36.8814 48.6511 36.0808L48.6479 36.0778L48.6447 36.0746C47.8358 35.2658 47.4067 34.2159 47.4067 33.0757C47.4067 31.8896 47.8372 30.8844 48.6447 30.0768ZM51.6436 29.5943C50.6651 29.5943 49.863 29.9161 49.1735 30.6057C48.484 31.2952 48.1622 32.0972 48.1622 33.0757C48.1622 34.0082 48.4826 34.8108 49.1735 35.5017C49.8644 36.1926 50.6671 36.5131 51.5995 36.5131C52.5798 36.5131 53.3772 36.1903 54.0189 35.5085L54.0252 35.5018L54.0319 35.4955C54.7589 34.8088 55.0809 33.9667 55.0809 33.0316C55.0809 32.0992 54.7605 31.2965 54.0696 30.6057C53.3787 29.9148 52.576 29.5943 51.6436 29.5943Z" fill="black"/>
<path d="M62.1404 36.6926C62.1404 36.7808 62.0963 36.7808 62.0522 36.7808C62.0081 36.7808 61.964 36.7367 61.964 36.6926V32.5468C61.964 31.797 61.9199 31.2236 61.8317 30.9149C61.6993 30.3856 61.3906 29.9446 60.8613 29.6359C60.5085 29.4153 60.0675 29.283 59.6264 29.283C59.009 29.283 58.4797 29.5035 58.0387 29.9005C57.5976 30.2974 57.3771 30.8267 57.2889 31.4441C57.2448 31.6647 57.2448 32.0616 57.2448 32.5468V36.6926C57.2448 36.7808 57.2007 36.7808 57.1566 36.7808C57.0684 36.7808 57.0684 36.7367 57.0684 36.6926V29.3712C57.0684 29.283 57.1125 29.2389 57.1566 29.2389C57.2007 29.2389 57.2448 29.283 57.2448 29.3712C57.2448 30.1651 57.2448 30.6944 57.2448 30.9149C57.2889 30.7826 57.3771 30.5621 57.5094 30.2533C57.7299 29.9005 58.0387 29.5918 58.4356 29.3712C58.8325 29.1507 59.2295 29.0625 59.6705 29.0625C60.2439 29.0625 60.7731 29.2389 61.2583 29.6359C61.6993 30.0328 62.0081 30.4738 62.0963 31.0472C62.1404 31.3559 62.1845 31.7088 62.1845 32.1939V36.6926H62.1404Z" fill="black"/>
<path fill-rule="evenodd" clip-rule="evenodd" d="M62.3189 37.0042H62.4961V32.194C62.4961 31.6878 62.4498 31.3186 62.4048 31.0032L62.4043 30.9999C62.3015 30.3319 61.9403 29.8305 61.4668 29.4043L61.4613 29.3994L61.4556 29.3948C60.914 28.9516 60.3148 28.751 59.6706 28.751C59.1832 28.751 58.733 28.8497 58.2843 29.0989C58.0017 29.2559 57.7591 29.4528 57.5564 29.6764V29.3713C57.5564 29.2 57.45 28.9274 57.1566 28.9274C56.8633 28.9274 56.7569 29.2 56.7569 29.3713V36.6926C56.7569 36.6931 56.7568 36.6937 56.7568 36.6944C56.7568 36.7039 56.7567 36.7341 56.761 36.7662C56.7659 36.8033 56.7789 36.8642 56.8202 36.9261C56.9169 37.0711 57.0714 37.0924 57.1566 37.0924C57.1571 37.0924 57.1577 37.0924 57.1584 37.0924C57.1679 37.0924 57.1981 37.0926 57.2302 37.0883C57.2673 37.0833 57.3282 37.0703 57.3901 37.029C57.5351 36.9323 57.5564 36.7779 57.5564 36.6926V32.5468C57.5564 32.0431 57.558 31.6873 57.5944 31.5053L57.5961 31.4968L57.5974 31.4882C57.6787 30.9186 57.8763 30.4659 58.2471 30.1321C58.6345 29.7835 59.0906 29.5946 59.6265 29.5946C60.0081 29.5946 60.392 29.71 60.6963 29.9001L60.7003 29.9026L60.7044 29.905C61.1594 30.1704 61.417 30.5407 61.5294 30.9905L61.5307 30.9955L61.5321 31.0005C61.607 31.2626 61.6525 31.7958 61.6525 32.5468V36.6926C61.6525 36.816 61.711 36.9133 61.7713 36.9736C61.8315 37.0338 61.9288 37.0924 62.0522 37.0924C62.0527 37.0924 62.0533 37.0924 62.054 37.0924C62.0635 37.0924 62.0937 37.0926 62.1258 37.0883C62.1629 37.0833 62.2238 37.0703 62.2857 37.029C62.2976 37.0211 62.3086 37.0128 62.3189 37.0042ZM56.9333 36.6926C56.9333 36.6927 56.9333 36.6925 56.9333 36.6926V36.6926Z" fill="black"/>
<path d="M26.6367 49.3067C26.6367 49.9683 26.4161 50.5416 25.931 51.0268C25.4458 51.5119 24.8725 51.7325 24.2109 51.7325C23.5934 51.7325 23.0201 51.5119 22.5349 51.0709C22.0498 50.6299 21.7852 50.0565 21.7852 49.439C21.7852 49.3508 21.8293 49.3508 21.8734 49.3508C21.9175 49.3508 21.9616 49.3949 21.9616 49.4831C22.0057 49.8801 22.0939 50.1888 22.2703 50.4534C22.7114 51.2032 23.3729 51.6002 24.255 51.6002C24.8725 51.6002 25.4017 51.3796 25.8428 50.9386C26.2838 50.4975 26.5043 49.9683 26.5043 49.3508C26.5043 48.4687 26.1074 47.8072 25.3576 47.4102C25.0048 47.1897 24.652 47.1015 24.2109 47.1015C24.1227 47.1015 24.1227 47.0574 24.1227 47.0133C24.1227 46.9251 24.1668 46.9251 24.255 46.9251C24.9166 46.9251 25.4899 47.1456 25.9751 47.6307C26.4161 48.0718 26.6367 48.6451 26.6367 49.3067ZM26.1515 45.9107C26.1515 45.9548 26.1074 45.9989 26.0633 45.9989C26.0192 45.9989 25.9751 45.9548 25.9751 45.8666C25.931 45.6019 25.8428 45.3814 25.7546 45.2491C25.4017 44.6316 24.8725 44.3229 24.1227 44.3229C23.5934 44.3229 23.1965 44.4993 22.7996 44.8522C22.4467 45.205 22.2703 45.646 22.2703 46.1753C22.2703 46.6604 22.4467 47.1015 22.7996 47.4984C23.1524 47.8513 23.5934 48.0277 24.0786 48.0277C24.1227 48.0277 24.1668 48.0718 24.1668 48.1159C24.1668 48.16 24.1227 48.2041 24.0345 48.2041C23.5052 48.2041 23.0201 47.9836 22.6672 47.5866C22.2703 47.1897 22.0939 46.7045 22.0939 46.1753C22.0939 45.6019 22.3144 45.1168 22.6672 44.7198C23.0642 44.3229 23.5493 44.1465 24.0786 44.1465C24.5637 44.1465 25.0489 44.3229 25.4458 44.6757C25.931 44.9845 26.1515 45.4255 26.1515 45.9107Z" fill="black"/>
<path fill-rule="evenodd" clip-rule="evenodd" d="M25.6649 45.901C25.6256 45.6777 25.5525 45.5076 25.4954 45.422L25.4894 45.413L25.4841 45.4037C25.3306 45.135 25.1471 44.9474 24.9329 44.825C24.7183 44.7024 24.454 44.6345 24.1227 44.6345C23.6839 44.6345 23.3598 44.7731 23.0136 45.0789C22.7272 45.3684 22.5819 45.7264 22.5819 46.1753C22.5819 46.574 22.7232 46.9408 23.0263 47.2845C23.3185 47.5736 23.6775 47.7162 24.0786 47.7162C24.202 47.7162 24.2993 47.7747 24.3596 47.835C24.4198 47.8952 24.4784 47.9925 24.4784 48.1159C24.4784 48.4093 24.2058 48.5157 24.0345 48.5157C23.4181 48.5157 22.8512 48.2587 22.4405 47.8005C21.9847 47.3413 21.7824 46.777 21.7824 46.1753C21.7824 45.5149 22.0385 44.9583 22.4344 44.5129L22.4405 44.506L22.447 44.4996C22.9074 44.0392 23.4742 43.835 24.0786 43.835C24.6327 43.835 25.1838 44.034 25.6342 44.4265C26.1938 44.7914 26.4631 45.325 26.4631 45.9107C26.4631 46.0341 26.4045 46.1314 26.3443 46.1917C26.284 46.2519 26.1867 46.3105 26.0633 46.3105C25.789 46.3105 25.6781 46.072 25.6649 45.901ZM22.2726 49.4603C22.2636 49.2887 22.154 49.0393 21.8734 49.0393C21.8729 49.0393 21.8723 49.0393 21.8716 49.0393C21.8621 49.0393 21.8319 49.0391 21.7998 49.0434C21.7628 49.0484 21.7019 49.0614 21.6399 49.1027C21.4949 49.1993 21.4736 49.3538 21.4736 49.4391C21.4736 50.1509 21.7803 50.8059 22.3254 51.3015C22.8663 51.7932 23.5138 52.0441 24.2109 52.0441C24.9511 52.0441 25.605 51.7935 26.1513 51.2471C26.6977 50.7008 26.9483 50.0469 26.9483 49.3068C26.9483 48.5713 26.7008 47.9158 26.1954 47.4105C25.6491 46.8641 24.9952 46.6136 24.255 46.6136C24.2538 46.6136 24.2525 46.6135 24.2511 46.6135C24.2324 46.6135 24.2013 46.6135 24.1713 46.616C24.1402 46.6186 24.08 46.6257 24.0165 46.6575C23.9417 46.6948 23.8816 46.7564 23.8463 46.8358C23.8158 46.9043 23.8112 46.97 23.8112 47.0133C23.8112 47.0138 23.8112 47.0144 23.8112 47.0151C23.8111 47.0246 23.811 47.0548 23.8153 47.0869C23.8202 47.124 23.8332 47.1849 23.8745 47.2468C23.9712 47.3918 24.1257 47.4131 24.2109 47.4131C24.6028 47.4131 24.8965 47.4894 25.1925 47.6745L25.202 47.6804L25.2119 47.6856C25.8569 48.0271 26.1928 48.581 26.1928 49.3509C26.1928 49.8848 26.0058 50.335 25.6225 50.7183C25.2392 51.1016 24.7889 51.2886 24.255 51.2886C23.4874 51.2886 22.926 50.9537 22.5389 50.2955L22.5344 50.2879L22.5296 50.2807C22.3926 50.0751 22.314 49.8241 22.2726 49.4603Z" fill="black"/>
<path d="M32.7231 51.4677C32.7231 51.5559 32.679 51.5559 32.6349 51.5559C32.5908 51.5559 32.5467 51.5118 32.5467 51.4677V47.4541C32.5467 46.7044 32.5026 46.1751 32.4143 45.8664C32.282 45.3371 31.9733 44.9402 31.4881 44.6314C31.1353 44.4109 30.6943 44.2786 30.2532 44.2786C29.6358 44.2786 29.1506 44.455 28.7096 44.852C28.3126 45.2489 28.048 45.7341 27.9598 46.3515C27.9598 46.572 27.9157 46.9249 27.9157 47.4541V51.4677C27.9157 51.5559 27.8716 51.5559 27.8275 51.5559C27.7393 51.5559 27.7393 51.5118 27.7393 51.4677V41.897C27.7393 41.8088 27.7834 41.7646 27.8275 41.7646C27.8716 41.7646 27.9157 41.8088 27.9157 41.897V45.3371V45.9105C27.9598 45.7782 28.048 45.5576 28.1803 45.293C28.4008 44.9402 28.6655 44.6314 29.0624 44.455C29.4593 44.2345 29.8563 44.1463 30.2532 44.1463C30.8266 44.1463 31.3117 44.3227 31.7528 44.7197C32.1938 45.0725 32.4584 45.5576 32.5908 46.0869C32.6349 46.3515 32.679 46.7485 32.679 47.2336V51.4677H32.7231Z" fill="black"/>
<path fill-rule="evenodd" clip-rule="evenodd" d="M27.6042 51.4673C27.6042 51.4675 27.6042 51.4676 27.6042 51.4676L27.6042 51.4677V51.4673ZM28.2712 46.3753C28.2702 46.4682 28.263 46.58 28.2553 46.7011C28.2531 46.7354 28.2509 46.7704 28.2488 46.8059C28.2379 46.9848 28.2273 47.1984 28.2273 47.4542V51.4677C28.2273 51.5529 28.206 51.7074 28.061 51.8041C27.9991 51.8454 27.9382 51.8584 27.9011 51.8633C27.869 51.8676 27.8388 51.8675 27.8293 51.8675C27.8286 51.8675 27.828 51.8675 27.8275 51.8675C27.7423 51.8675 27.5878 51.8462 27.4911 51.7012C27.4498 51.6392 27.4368 51.5783 27.4319 51.5413C27.4276 51.5092 27.4277 51.4789 27.4277 51.4695C27.4277 51.4688 27.4277 51.4682 27.4277 51.4677V41.897C27.4277 41.7257 27.5342 41.4531 27.8275 41.4531C28.1209 41.4531 28.2273 41.7257 28.2273 41.897V44.7027C28.4116 44.4925 28.6361 44.3062 28.9231 44.1761C29.3655 43.9329 29.8111 43.8348 30.2533 43.8348C30.8984 43.8348 31.4563 44.0363 31.9545 44.4821C32.4555 44.8858 32.7486 45.4337 32.8931 46.0114L32.8961 46.0234L32.8981 46.0357C32.9449 46.316 32.9906 46.7301 32.9906 47.2337V51.1561H33.0347V51.4677C33.0347 51.5529 33.0134 51.7074 32.8684 51.8041C32.8065 51.8454 32.7456 51.8584 32.7085 51.8633C32.6764 51.8676 32.6462 51.8675 32.6367 51.8675C32.636 51.8675 32.6354 51.8675 32.6349 51.8675C32.5327 51.8675 32.4484 51.8273 32.3882 51.7792H32.3675V51.7615C32.3628 51.7573 32.3583 51.7529 32.354 51.7486C32.2937 51.6884 32.2351 51.5911 32.2351 51.4677V47.4542C32.2351 46.7052 32.1899 46.2148 32.1148 45.952L32.1134 45.947L32.1121 45.942C32.0017 45.5003 31.7482 45.1665 31.322 44.895C31.018 44.7053 30.6344 44.5902 30.2533 44.5902C29.7101 44.5902 29.3022 44.7402 28.9241 45.0781C28.5797 45.4246 28.3517 45.8411 28.2712 46.3753Z" fill="black"/>
<path d="M41.632 47.8954C41.632 48.9539 41.2792 49.8801 40.5294 50.6299C39.7797 51.3796 38.8976 51.7325 37.839 51.7325C36.7805 51.7325 35.8543 51.3796 35.1046 50.6299C34.3548 49.8801 34.002 48.998 34.002 47.9395C34.002 46.881 34.3548 45.9989 35.1046 45.2491C35.8543 44.4993 36.7364 44.1465 37.7949 44.1465C38.8535 44.1465 39.7355 44.4993 40.4853 45.2491C41.2792 45.9548 41.632 46.8369 41.632 47.8954ZM41.4556 47.8954C41.4556 46.881 41.1028 46.043 40.3971 45.3373C39.6914 44.6316 38.8094 44.2788 37.839 44.2788C36.8246 44.2788 35.9426 44.6316 35.2369 45.3373C34.5312 46.043 34.1784 46.9251 34.1784 47.9395C34.1784 48.9539 34.5312 49.7919 35.2369 50.4975C35.9426 51.2032 36.8246 51.5561 37.7949 51.5561C38.8094 51.5561 39.6473 51.2032 40.353 50.4975C41.1028 49.7919 41.4556 48.9098 41.4556 47.8954Z" fill="black"/>
<path fill-rule="evenodd" clip-rule="evenodd" d="M34.8843 45.0288C35.6943 44.2188 36.6565 43.835 37.795 43.835C38.9305 43.835 39.8905 44.2167 40.6992 45.0224C41.5615 45.7922 41.9436 46.7603 41.9436 47.8954C41.9436 49.03 41.5624 50.0375 40.7498 50.8502C39.9397 51.6602 38.9776 52.0441 37.8391 52.0441C36.7045 52.0441 35.697 51.6629 34.8843 50.8502C34.0743 50.0401 33.6904 49.078 33.6904 47.9395C33.6904 46.801 34.0743 45.8389 34.8843 45.0288ZM37.8391 44.5904C36.9038 44.5904 36.102 44.9129 35.4572 45.5576C34.8124 46.2024 34.49 47.0042 34.49 47.9395C34.49 48.8708 34.8096 49.6297 35.4572 50.2773C36.1034 50.9234 36.9058 51.2445 37.795 51.2445C38.7262 51.2445 39.4851 50.9249 40.1327 50.2773L40.1361 50.2739L40.1395 50.2707C40.8228 49.6276 41.1441 48.8295 41.1441 47.8954C41.1441 46.9642 40.8245 46.2053 40.1768 45.5576C39.5307 44.9115 38.7283 44.5904 37.8391 44.5904Z" fill="black"/>
<path d="M50.4974 47.9391C50.4974 48.9977 50.1446 49.8797 49.3507 50.6295C48.6009 51.3793 47.6747 51.7321 46.6162 51.7321C45.69 51.7321 44.8521 51.4234 44.1464 50.8059V53.9815C44.1464 54.0697 44.1023 54.0697 44.0582 54.0697C44.0141 54.0697 43.97 54.0256 43.97 53.9815V50.6295C43.2202 49.8797 42.8232 48.9536 42.8232 47.895C42.8232 46.8365 43.1761 45.9544 43.9259 45.2047C44.6756 44.4549 45.5577 44.1021 46.6162 44.1021C47.6747 44.1021 48.5568 44.4549 49.3066 45.2047C50.1005 45.9544 50.4974 46.8806 50.4974 47.9391ZM50.321 47.9391C50.321 46.9247 49.9682 46.0426 49.2625 45.337C48.5568 44.6313 47.6747 44.2785 46.6603 44.2785C45.6459 44.2785 44.8079 44.6313 44.0582 45.337C43.3525 46.0426 42.9997 46.9247 42.9997 47.895C42.9997 48.8653 43.3084 49.7033 43.97 50.3649V47.9391C43.97 47.8509 44.0141 47.8068 44.0582 47.8068C44.1464 47.8068 44.1464 47.8509 44.1464 47.9391V50.5413C44.8521 51.2029 45.69 51.5557 46.6603 51.5557C47.6747 51.5557 48.5127 51.2029 49.2184 50.4972C49.9682 49.7915 50.321 48.9094 50.321 47.9391Z" fill="black"/>
<path fill-rule="evenodd" clip-rule="evenodd" d="M44.458 50.4034C45.0875 50.9559 45.8182 51.2442 46.6604 51.2442C47.5916 51.2442 48.3505 50.9246 48.9981 50.2769L49.0015 50.2736L49.0049 50.2704C49.6896 49.6259 50.0095 48.827 50.0095 47.9392C50.0095 47.0039 49.687 46.2021 49.0422 45.5573C48.3975 44.9125 47.5957 44.5901 46.6604 44.5901C45.732 44.5901 44.9701 44.9079 44.2752 45.5606C43.6312 46.2062 43.3113 47.0074 43.3113 47.8951C43.3113 48.4633 43.4245 48.9742 43.6584 49.4237V47.9392C43.6584 47.7679 43.7649 47.4953 44.0582 47.4953C44.1015 47.4953 44.1672 47.5 44.2357 47.5304C44.3151 47.5657 44.3767 47.6259 44.4141 47.7006C44.4458 47.7641 44.4529 47.8243 44.4555 47.8554C44.458 47.8854 44.458 47.9166 44.458 47.9353C44.458 47.9366 44.458 47.9379 44.458 47.9392V50.4034ZM43.6584 50.7561C42.911 49.9663 42.5117 48.9951 42.5117 47.8951C42.5117 46.7566 42.8955 45.7944 43.7056 44.9844C44.5156 44.1744 45.4778 43.7905 46.6163 43.7905C47.7533 43.7905 48.7144 44.1734 49.5238 44.9812C50.3771 45.7887 50.809 46.7954 50.809 47.9392C50.809 49.0776 50.425 50.0421 49.5679 50.853C48.7558 51.6635 47.7494 52.0437 46.6163 52.0437C45.8325 52.0437 45.1038 51.8379 44.458 51.4279V53.9815C44.458 54.0668 44.4367 54.2212 44.2917 54.3179C44.2297 54.3592 44.1688 54.3722 44.1318 54.3772C44.0997 54.3814 44.0695 54.3813 44.06 54.3813C44.0593 54.3813 44.0587 54.3813 44.0582 54.3813C43.9348 54.3813 43.8375 54.3227 43.7773 54.2625C43.717 54.2022 43.6584 54.1049 43.6584 53.9815V50.7561ZM43.8349 53.9811C43.8349 53.9813 43.8349 53.9814 43.8349 53.9815L43.8349 53.9815V53.9811Z" fill="black"/>
<path d="M32.3262 55.1724V58.7889L35.5899 56.9365L32.3262 55.1724Z" fill="black"/>
<path d="M38.7213 55.1724V58.7889L35.4575 56.9365L38.7213 55.1724Z" fill="black"/>
<circle cx="35" cy="35" r="34" stroke="url(#paint0_linear)" stroke-width="2"/>
<defs>
<linearGradient id="paint0_linear" x1="4.69992" y1="65.4395" x2="69.5597" y2="9.29311" gradientUnits="userSpaceOnUse">
<stop stop-color="#FFDD55"/>
<stop offset="0.5" stop-color="#FF543E"/>
<stop offset="1" stop-color="#C837AB"/>
</linearGradient>
</defs>
</svg>
