<svg width="100%" height="100%" viewBox="0 0 100 100" fill="none" xmlns="http://www.w3.org/2000/svg">
<circle cx="50" cy="50" r="50" fill="white"/>
<path d="M77.5619 22.4383V77.5619H22.4383V22.4383H77.5619ZM77.5619 20.9092H22.4383C21.5973 20.9092 20.9092 21.5973 20.9092 22.4383V77.5619C20.9092 78.4029 21.5973 79.091 22.4383 79.091H77.5619C78.4029 79.091 79.091 78.4029 79.091 77.5619V22.4383C79.091 21.5973 78.4029 20.9092 77.5619 20.9092Z" fill="#F4976E"/>
<path d="M50.8028 37.8056C50.8028 37.1939 50.5735 36.6587 50.1912 36.2765C50.5735 35.8942 50.8028 35.359 50.8028 34.7474C50.8028 33.677 50.1147 32.836 49.1973 32.5302C48.4327 28.9369 45.2981 26.3374 41.5518 26.3374H35.5119C31.7657 26.3374 28.631 29.0133 27.9429 32.5302C27.0255 32.836 26.3374 33.677 26.3374 34.7474C26.3374 35.359 26.5668 35.8942 26.949 36.2765C26.5668 36.6587 26.3374 37.1939 26.3374 37.8056C26.3374 38.8759 27.0255 39.7169 27.9429 40.0227C28.631 43.6161 31.8421 46.2156 35.5119 46.2156H41.5518C45.2216 46.2156 48.4327 43.5396 49.1208 40.0227C50.1147 39.7169 50.8028 38.7995 50.8028 37.8056ZM35.5119 27.8665H41.5518C44.3806 27.8665 46.8272 29.7779 47.5153 32.4538H47.2095L47.0566 32.3008C46.6743 31.9186 46.1391 31.6892 45.6039 31.6892H45.1452C44.61 31.6892 44.0748 31.9186 43.6926 32.3008C43.6161 32.3773 43.4632 32.4538 43.3103 32.4538H42.8516C42.6987 32.4538 42.5457 32.3773 42.4693 32.3008C42.087 31.9186 41.5518 31.6892 41.0167 31.6892H40.5579C40.0227 31.6892 39.4876 31.9186 39.1053 32.3008C39.0288 32.3773 38.8759 32.4538 38.723 32.4538H38.2643C38.1114 32.4538 37.9585 32.3773 37.882 32.3008C37.4997 31.9186 36.9646 31.6892 36.4294 31.6892H35.9707C35.4355 31.6892 34.9003 31.9186 34.518 32.3008C34.4416 32.3773 34.2887 32.4538 34.1358 32.4538H33.677C33.5241 32.4538 33.3712 32.3773 33.2948 32.3008C32.9125 31.9186 32.3773 31.6892 31.8421 31.6892H31.3834C30.8482 31.6892 30.313 31.9186 29.9308 32.3008L29.7779 32.4538H29.472C30.2366 29.7779 32.6831 27.8665 35.5119 27.8665ZM28.631 33.9828H30.4659L31.0776 33.3712C31.154 33.2948 31.3069 33.2183 31.4598 33.2183H31.9186C32.0715 33.2183 32.2244 33.2948 32.3008 33.3712C32.6831 33.7535 33.2183 33.9828 33.7535 33.9828H34.2122C34.7474 33.9828 35.2826 33.7535 35.6648 33.3712C35.7413 33.2948 35.8942 33.2183 36.0471 33.2183H36.5058C36.6587 33.2183 36.8117 33.2948 36.8881 33.3712C37.2704 33.7535 37.8056 33.9828 38.3407 33.9828H38.7995C39.3347 33.9828 39.8698 33.7535 40.2521 33.3712C40.3286 33.2948 40.4815 33.2183 40.6344 33.2183H41.0931C41.246 33.2183 41.3989 33.2948 41.4754 33.3712C41.8577 33.7535 42.3928 33.9828 42.928 33.9828H43.3867C43.9219 33.9828 44.4571 33.7535 44.8394 33.3712C44.9158 33.2948 45.0687 33.2183 45.2216 33.2183H45.6804C45.8333 33.2183 45.9862 33.2948 46.0626 33.3712L46.6743 33.9828H48.5092C48.9679 33.9828 49.2737 34.2887 49.2737 34.7474C49.2737 35.2061 48.9679 35.5119 48.5092 35.5119H28.631C28.1723 35.5119 27.8665 35.2061 27.8665 34.7474C27.8665 34.2887 28.1723 33.9828 28.631 33.9828ZM28.631 37.041H48.5092C48.9679 37.041 49.2737 37.3468 49.2737 37.8056C49.2737 38.2643 48.9679 38.5701 48.5092 38.5701H28.631C28.1723 38.5701 27.8665 38.2643 27.8665 37.8056C27.8665 37.3468 28.1723 37.041 28.631 37.041ZM41.5518 44.6865H35.5119C32.6831 44.6865 30.2366 42.7751 29.5485 40.0992H47.5917C46.8272 42.7751 44.3806 44.6865 41.5518 44.6865Z" fill="#F4976E"/>
<path d="M72.0573 60.0536C71.3693 56.4603 68.1582 53.8608 64.4884 53.8608H58.4485C54.7786 53.8608 51.5676 56.5367 50.8795 60.0536C49.962 60.3595 49.2739 61.2005 49.2739 62.2708C49.2739 62.8825 49.5033 63.4176 49.8856 63.7999C49.5033 64.1822 49.2739 64.7174 49.2739 65.329C49.2739 66.3994 49.962 67.2404 50.8795 67.5462C51.5676 71.1395 54.7786 73.739 58.4485 73.739H64.4884C68.1582 73.739 71.3693 71.0631 72.0573 67.5462C72.9748 67.2404 73.6629 66.3994 73.6629 65.329C73.6629 64.7174 73.4335 64.1822 73.0513 63.7999C73.4335 63.4176 73.6629 62.8825 73.6629 62.2708C73.7393 61.2005 73.0513 60.3595 72.0573 60.0536ZM58.4485 55.3899H64.4884C67.3172 55.3899 69.7637 57.3013 70.4518 59.9772H70.146L69.9931 59.8243C69.6108 59.442 69.0756 59.2126 68.5404 59.2126H68.0817C67.5465 59.2126 67.0114 59.442 66.6291 59.8243C66.5526 59.9007 66.3997 59.9772 66.2468 59.9772H65.7881C65.6352 59.9772 65.4823 59.9007 65.4058 59.8243C65.0235 59.442 64.4884 59.2126 63.9532 59.2126H63.4945C62.9593 59.2126 62.4241 59.442 62.0418 59.8243C61.9654 59.9007 61.8125 59.9772 61.6595 59.9772H61.2008C61.0479 59.9772 60.895 59.9007 60.8185 59.8243C60.4363 59.442 59.9011 59.2126 59.3659 59.2126H58.9072C58.372 59.2126 57.8368 59.442 57.4545 59.8243C57.3781 59.9007 57.2252 59.9772 57.0723 59.9772H56.6136C56.4606 59.9772 56.3077 59.9007 56.2313 59.8243C55.849 59.442 55.3138 59.2126 54.7786 59.2126H54.3199C53.7847 59.2126 53.2496 59.442 52.8673 59.8243L52.7144 59.9772H52.4086C53.1731 57.3013 55.6196 55.3899 58.4485 55.3899ZM51.5676 61.5063H53.4025L54.0141 60.8946C54.0906 60.8182 54.2435 60.7417 54.3964 60.7417H54.8551C55.008 60.7417 55.1609 60.8182 55.2374 60.8946C55.6196 61.2769 56.1548 61.5063 56.69 61.5063H57.1487C57.6839 61.5063 58.2191 61.2769 58.6014 60.8946C58.6778 60.8182 58.8307 60.7417 58.9836 60.7417H59.4424C59.5953 60.7417 59.7482 60.8182 59.8246 60.8946C60.2069 61.2769 60.7421 61.5063 61.2773 61.5063H61.736C62.2712 61.5063 62.8064 61.2769 63.1886 60.8946C63.2651 60.8182 63.418 60.7417 63.5709 60.7417H64.0296C64.1825 60.7417 64.3355 60.8182 64.4119 60.8946C64.7942 61.2769 65.3294 61.5063 65.8645 61.5063H66.3233C66.8584 61.5063 67.3936 61.2769 67.7759 60.8946C67.8524 60.8182 68.0053 60.7417 68.1582 60.7417H68.6169C68.7698 60.7417 68.9227 60.8182 68.9992 60.8946L69.6108 61.5063H71.4457C71.9044 61.5063 72.2103 61.8121 72.2103 62.2708C72.2103 62.7296 71.9044 63.0354 71.4457 63.0354H51.5676C51.1088 63.0354 50.803 62.7296 50.803 62.2708C50.803 61.8121 51.1088 61.5063 51.5676 61.5063ZM64.4884 72.2099H58.4485C55.6196 72.2099 53.1731 70.2985 52.485 67.6226H70.5283C69.7637 70.2985 67.3172 72.2099 64.4884 72.2099ZM71.4457 66.0935H51.5676C51.1088 66.0935 50.803 65.7877 50.803 65.329C50.803 64.8703 51.1088 64.5645 51.5676 64.5645H71.4457C71.9044 64.5645 72.2103 64.8703 72.2103 65.329C72.2103 65.7877 71.828 66.0935 71.4457 66.0935Z" fill="#F4976E"/>
<path d="M39.9461 50.8795C39.6403 49.962 38.7993 49.2739 37.7289 49.2739C37.1173 49.2739 36.5821 49.5033 36.1998 49.8856C35.8175 49.5033 35.2824 49.2739 34.6707 49.2739C33.6004 49.2739 32.7594 49.962 32.4536 50.8795C28.8602 51.5676 26.2607 54.7786 26.2607 58.4485V64.4884C26.2607 68.1582 28.9366 71.3693 32.4536 72.0573C32.7594 72.9748 33.6004 73.6629 34.6707 73.6629C35.2824 73.6629 35.8175 73.4335 36.1998 73.0513C36.5821 73.4335 37.1173 73.6629 37.7289 73.6629C38.7993 73.6629 39.6403 72.9748 39.9461 72.0573C43.5394 71.3693 46.1389 68.1582 46.1389 64.4884V58.4485C46.2154 54.7786 43.5394 51.5676 39.9461 50.8795ZM27.8663 64.4884V58.4485C27.8663 55.6196 29.7776 53.1731 32.4536 52.485V52.7908L32.3006 52.9437C31.9184 53.326 31.689 53.8612 31.689 54.3964V54.8551C31.689 55.3903 31.9184 55.9255 32.3006 56.3077C32.3771 56.3842 32.4536 56.5371 32.4536 56.69V57.1487C32.4536 57.3016 32.3771 57.4546 32.3006 57.531C31.9184 57.9133 31.689 58.4485 31.689 58.9836V59.4424C31.689 59.9775 31.9184 60.5127 32.3006 60.895C32.3771 60.9715 32.4536 61.1244 32.4536 61.2773V61.736C32.4536 61.8889 32.3771 62.0418 32.3006 62.1183C31.9184 62.5005 31.689 63.0357 31.689 63.5709V64.0296C31.689 64.5648 31.9184 65.1 32.3006 65.4823C32.3771 65.5587 32.4536 65.7116 32.4536 65.8645V66.3233C32.4536 66.4762 32.3771 66.6291 32.3006 66.7055C31.9184 67.0878 31.689 67.623 31.689 68.1582V68.6169C31.689 69.1521 31.9184 69.6873 32.3006 70.0695L32.4536 70.2224V70.5283C29.7776 69.7637 27.8663 67.3172 27.8663 64.4884ZM34.7472 72.2103C34.2885 72.2103 33.9826 71.9044 33.9826 71.4457V69.6108L33.371 68.9992C33.2945 68.9227 33.2181 68.7698 33.2181 68.6169V68.1582C33.2181 68.0053 33.2945 67.8524 33.371 67.7759C33.7533 67.3936 33.9826 66.8584 33.9826 66.3233V65.8645C33.9826 65.3294 33.7533 64.7942 33.371 64.4119C33.2945 64.3355 33.2181 64.1825 33.2181 64.0296V63.5709C33.2181 63.418 33.2945 63.2651 33.371 63.1886C33.7533 62.8064 33.9826 62.2712 33.9826 61.736V61.2773C33.9826 60.7421 33.7533 60.2069 33.371 59.8246C33.2945 59.7482 33.2181 59.5953 33.2181 59.4424V58.9836C33.2181 58.8307 33.2945 58.6778 33.371 58.6014C33.7533 58.2191 33.9826 57.6839 33.9826 57.1487V56.69C33.9826 56.1548 33.7533 55.6196 33.371 55.2374C33.2945 55.1609 33.2181 55.008 33.2181 54.8551V54.3964C33.2181 54.2435 33.2945 54.0906 33.371 54.0141L33.9826 53.4025V51.5676C33.9826 51.1088 34.2885 50.803 34.7472 50.803C35.2059 50.803 35.5117 51.1088 35.5117 51.5676V71.4457C35.5117 71.828 35.1295 72.2103 34.7472 72.2103ZM38.5699 71.4457C38.5699 71.9044 38.2641 72.2103 37.8054 72.2103C37.3466 72.2103 37.0408 71.9044 37.0408 71.4457V51.5676C37.0408 51.1088 37.3466 50.803 37.8054 50.803C38.2641 50.803 38.5699 51.1088 38.5699 51.5676V71.4457ZM44.6863 64.4884C44.6863 67.3172 42.7749 69.7637 40.099 70.4518V52.485C42.7749 53.1731 44.6863 55.6196 44.6863 58.4485V64.4884Z" fill="#F4976E"/>
<path d="M67.4695 27.9429C67.1637 27.0255 66.3227 26.3374 65.2523 26.3374C64.6407 26.3374 64.1055 26.5668 63.7233 26.949C63.341 26.5668 62.8058 26.3374 62.1942 26.3374C61.1238 26.3374 60.2828 27.0255 59.977 27.9429C56.3836 28.631 53.7842 31.8421 53.7842 35.5119V41.5518C53.7842 45.2216 56.4601 48.4327 59.977 49.1208C60.2828 50.0383 61.1238 50.7264 62.1942 50.7264C62.8058 50.7264 63.341 50.497 63.7233 50.1147C64.1055 50.497 64.6407 50.7264 65.2523 50.7264C66.3227 50.7264 67.1637 50.0383 67.4695 49.1208C71.0629 48.4327 73.6623 45.2216 73.6623 41.5518V35.5119C73.7388 31.8421 71.0629 28.631 67.4695 27.9429ZM55.3897 41.5518V35.5119C55.3897 32.6831 57.3011 30.2366 59.977 29.5485V47.5917C57.3011 46.8272 55.3897 44.3806 55.3897 41.5518ZM62.2706 49.2737C61.8119 49.2737 61.5061 48.9679 61.5061 48.5092V28.631C61.5061 28.1723 61.8119 27.8665 62.2706 27.8665C62.7293 27.8665 63.0352 28.1723 63.0352 28.631V48.5092C63.0352 48.8915 62.6529 49.2737 62.2706 49.2737ZM66.0933 46.6743V48.5092C66.0933 48.9679 65.7875 49.2737 65.3288 49.2737C64.8701 49.2737 64.5643 48.9679 64.5643 48.5092V28.631C64.5643 28.1723 64.8701 27.8665 65.3288 27.8665C65.7875 27.8665 66.0933 28.1723 66.0933 28.631V30.4659L66.705 31.0776C66.7814 31.154 66.8579 31.3069 66.8579 31.4598V31.9186C66.8579 32.0715 66.7814 32.2244 66.705 32.3008C66.3227 32.6831 66.0933 33.2183 66.0933 33.7535V34.2122C66.0933 34.7474 66.3227 35.2826 66.705 35.6648C66.7814 35.7413 66.8579 35.8942 66.8579 36.0471V36.5058C66.8579 36.6587 66.7814 36.8117 66.705 36.8881C66.3227 37.2704 66.0933 37.8056 66.0933 38.3407V38.7995C66.0933 39.3347 66.3227 39.8698 66.705 40.2521C66.7814 40.3286 66.8579 40.4815 66.8579 40.6344V41.0931C66.8579 41.246 66.7814 41.3989 66.705 41.4754C66.3227 41.8576 66.0933 42.3928 66.0933 42.928V43.3867C66.0933 43.9219 66.3227 44.4571 66.705 44.8394C66.7814 44.9158 66.8579 45.0687 66.8579 45.2216V45.6804C66.8579 45.8333 66.7814 45.9862 66.705 46.0626L66.0933 46.6743ZM72.2097 41.5518C72.2097 44.3806 70.2983 46.8272 67.6224 47.5153V47.2095L67.7753 47.0566C68.1576 46.6743 68.387 46.1391 68.387 45.6039V45.1452C68.387 44.61 68.1576 44.0748 67.7753 43.6926C67.6989 43.6161 67.6224 43.4632 67.6224 43.3103V42.8516C67.6224 42.6987 67.6989 42.5457 67.7753 42.4693C68.1576 42.087 68.387 41.5518 68.387 41.0167V40.5579C68.387 40.0227 68.1576 39.4876 67.7753 39.1053C67.6989 39.0288 67.6224 38.8759 67.6224 38.723V38.2643C67.6224 38.1114 67.6989 37.9585 67.7753 37.882C68.1576 37.4997 68.387 36.9646 68.387 36.4294V35.9707C68.387 35.4355 68.1576 34.9003 67.7753 34.518C67.6989 34.4416 67.6224 34.2887 67.6224 34.1358V33.677C67.6224 33.5241 67.6989 33.3712 67.7753 33.2948C68.1576 32.9125 68.387 32.3773 68.387 31.8421V31.3834C68.387 30.8482 68.1576 30.313 67.7753 29.9308L67.6224 29.7779V29.472C70.2983 30.1601 72.2097 32.6067 72.2097 35.4355V41.5518Z" fill="#F4976E"/>
</svg>
