<svg width="100%" height="100%" viewBox="0 0 100 100" fill="none" xmlns="http://www.w3.org/2000/svg">
<circle cx="50" cy="50" r="50" fill="white"/>
<path d="M70.4903 38.2793C71.1538 33.1774 68.9275 28.5239 64.542 25.8361C64.1395 25.5855 63.7203 25.3464 63.2959 25.1147C56.5499 21.4329 48.4965 20.7068 41.2008 23.1219C33.8061 25.5694 27.9294 30.8335 24.6525 37.9438C18.8339 50.581 23.3362 65.6928 35.1249 73.0945C35.6224 73.4074 36.1267 73.7033 36.6327 73.9794C36.9975 74.1785 37.3633 74.3665 37.7269 74.5443C42.3496 76.8093 47.6584 76.1742 51.5803 72.8867C55.7023 69.431 57.3272 64.0306 55.8204 58.7918C55.8204 58.7918 55.8204 58.7918 55.8199 58.7903C55.1633 56.5159 55.2784 54.5415 56.1617 52.9231C57.0423 51.3097 58.639 50.1477 60.9086 49.4691C66.1236 47.9067 69.795 43.6194 70.4903 38.2793ZM54.1258 51.8119C52.9555 53.9562 52.771 56.592 53.5921 59.4349C54.8408 63.778 53.4985 68.2515 50.0904 71.1084C46.8322 73.8395 42.5923 74.3458 38.7455 72.4605C37.9476 72.0714 37.1422 71.6228 36.3591 71.1309C25.5538 64.3459 21.4273 50.4959 26.7599 38.9146C29.7642 32.3936 35.1518 27.5669 41.9295 25.3233C48.6174 23.1094 56.0004 23.7753 62.1847 27.1506C62.5694 27.3606 62.9499 27.576 63.3231 27.8094C66.9133 30.0088 68.7328 33.812 68.1896 37.9797C67.6155 42.4002 64.5701 45.9518 60.244 47.2472C57.4088 48.0945 55.2934 49.6726 54.1258 51.8119Z" fill="#9FCE9E"/>
<path d="M61.3901 28.6087C59.1633 27.3934 56.362 28.2165 55.1466 30.4433C53.9313 32.6701 54.755 35.4705 56.9818 36.6858C59.2085 37.9011 62.0084 37.0784 63.2237 34.8517C64.439 32.6249 63.6169 29.8241 61.3901 28.6087ZM58.0929 34.6499C56.9885 34.0471 56.5798 32.6589 57.1826 31.5545C57.7853 30.4501 59.1745 30.0419 60.2789 30.6447C61.3834 31.2474 61.7906 32.636 61.1878 33.7405C60.585 34.8449 59.1974 35.2527 58.0929 34.6499Z" fill="#9FCE9E"/>
<path d="M42.9458 62.4032C40.719 61.1878 37.9182 62.01 36.7028 64.2368C35.4875 66.4635 36.3106 69.2649 38.5374 70.4802C40.7642 71.6956 43.5646 70.8719 44.7799 68.6451C45.9952 66.4183 45.1725 63.6185 42.9458 62.4032ZM39.6486 68.4443C38.5442 67.8415 38.136 66.4524 38.7388 65.3479C39.3415 64.2435 40.7301 63.8363 41.8346 64.4391C42.939 65.0419 43.3468 66.4295 42.744 67.5339C42.1412 68.6384 40.753 69.0471 39.6486 68.4443Z" fill="#9FCE9E"/>
<path d="M37.105 42.526C38.3204 40.2992 37.4982 37.4984 35.2714 36.2831C33.0447 35.0677 30.2433 35.8909 29.028 38.1176C27.8126 40.3444 28.6363 43.1448 30.8631 44.3601C33.0899 45.5755 35.8897 44.7528 37.105 42.526ZM31.9743 42.3242C30.8698 41.7214 30.4611 40.3333 31.0639 39.2288C31.6667 38.1244 33.0558 37.7162 34.1603 38.319C35.2647 38.9218 35.6719 40.3104 35.0691 41.4148C34.4663 42.5192 33.0787 42.927 31.9743 42.3242Z" fill="#9FCE9E"/>
<path d="M30.1973 50.5566C27.7637 51.2734 26.3655 53.8352 27.0803 56.2677C27.4261 57.4473 28.2121 58.4208 29.2907 59.0095C30.3693 59.5981 31.6127 59.7311 32.7914 59.3847C33.97 59.0384 34.9439 58.2539 35.5326 57.1753C36.1213 56.0967 36.2557 54.8528 35.9084 53.6736C35.1932 51.2396 32.6314 49.8414 30.1973 50.5566ZM32.1375 57.1596C30.9666 57.5037 29.6494 56.7848 29.3054 55.6139C28.9509 54.4076 29.6443 53.1371 30.8511 52.7817C32.0579 52.4288 33.3273 53.1216 33.6833 54.3275C33.8553 54.9129 33.7886 55.5293 33.4967 56.0642C33.2048 56.599 32.723 56.9876 32.1375 57.1596Z" fill="#9FCE9E"/>
<path d="M43.2388 26.6614C40.8063 27.3762 39.4081 29.938 40.1218 32.3725C40.4794 33.5896 41.2994 34.548 42.3333 35.1123C43.3671 35.6766 44.6158 35.8472 45.8329 35.4896C47.0125 35.1438 47.986 34.3578 48.5746 33.2792C49.1633 32.2006 49.2972 30.9576 48.9499 29.7785C48.2583 27.4192 45.5971 25.9668 43.2388 26.6614ZM45.1791 33.2645C43.9712 33.6194 42.7018 32.9265 42.3469 31.7187C41.9929 30.5114 42.6863 29.241 43.8926 28.8865C44.4781 28.7145 45.0945 28.7813 45.6293 29.0732C46.1642 29.3651 46.5528 29.8468 46.7248 30.4323C46.8969 31.0178 46.8306 31.6332 46.5387 32.168C46.2468 32.7028 45.7645 33.0924 45.1791 33.2645Z" fill="#9FCE9E"/>
<path d="M75.5928 54.2464L77.2288 48.5875C78.3049 48.189 79.2547 47.4354 79.8461 46.3518C80.9486 44.3318 80.5738 38.1535 80.4873 36.9361C80.4326 36.1475 79.4652 35.6221 78.7735 36.0007C77.7023 36.5876 72.3049 39.6142 71.2024 41.6342C70.6109 42.718 70.4907 43.9246 70.7377 45.0453L66.8636 49.4821C66.8312 49.5194 66.8223 49.5689 66.7952 49.6093C66.7605 49.6604 66.7119 49.6998 66.6855 49.7565L55.3584 74.1011C54.6502 75.6589 55.2729 77.5225 56.776 78.3428C58.28 79.1637 60.1843 78.6793 61.1172 77.2325L75.4584 54.5446C75.4918 54.4917 75.4987 54.4295 75.5229 54.3727C75.5422 54.3281 75.579 54.2939 75.5928 54.2464ZM59.1627 75.9839C58.8896 76.4063 58.3295 76.5484 57.8871 76.3069C57.4448 76.0655 57.2622 75.5182 57.4659 75.0694L68.2672 51.8558L72.8371 54.35L59.1627 75.9839ZM69.5613 49.9198L71.8754 47.2698C72.2389 47.6756 72.6599 48.0396 73.1647 48.3151C73.6697 48.5907 74.2041 48.748 74.7423 48.8342L73.7654 52.2143L69.5613 49.9198ZM74.2758 46.2791C73.0153 45.5912 72.5503 44.0059 73.2383 42.7454C73.6935 41.9113 76.0905 40.2688 78.2675 38.9656C78.3501 41.5021 78.2659 44.4056 77.8102 45.2406C77.1222 46.5011 75.5364 46.9671 74.2758 46.2791Z" fill="#9FCE9E"/>
</svg>
